G04 EAGLE Gerber RS-274X export*
G75*
%MOMM*%
%FSLAX34Y34*%
%LPD*%
%INTop Solder Mask*%
%IPPOS*%
%AMOC8*
5,1,8,0,0,1.08239X$1,22.5*%
G01*
%ADD10R,0.553200X0.553200*%
%ADD11R,1.053200X1.103200*%
%ADD12R,1.303200X1.203200*%
%ADD13R,1.003200X1.403200*%
%ADD14R,1.203200X1.303200*%
%ADD15R,1.103200X1.053200*%
%ADD16R,0.803200X0.703200*%
%ADD17R,0.603200X0.583200*%
%ADD18R,0.583200X0.603200*%
%ADD19C,0.404144*%
%ADD20R,1.828200X2.568200*%
%ADD21R,0.763200X0.803200*%
%ADD22R,2.303200X1.603200*%
%ADD23C,1.524000*%
%ADD24R,1.753200X2.603200*%
%ADD25R,0.403200X0.703200*%
%ADD26R,1.403200X0.603200*%
%ADD27R,0.475000X0.450000*%
%ADD28R,0.450000X0.475000*%
%ADD29R,0.553200X0.793200*%
%ADD30R,0.793200X0.553200*%
%ADD31C,0.275422*%
%ADD32R,1.503200X1.303200*%
%ADD33C,1.411200*%
%ADD34R,1.403200X1.003200*%
%ADD35C,0.959600*%

G36*
X465402Y511125D02*
X465402Y511125D01*
X465404Y511124D01*
X465447Y511144D01*
X465491Y511162D01*
X465491Y511164D01*
X465493Y511165D01*
X465526Y511250D01*
X465526Y517250D01*
X465525Y517252D01*
X465526Y517254D01*
X465506Y517297D01*
X465488Y517341D01*
X465486Y517341D01*
X465485Y517343D01*
X465400Y517376D01*
X462400Y517376D01*
X462398Y517375D01*
X462396Y517376D01*
X462353Y517356D01*
X462309Y517338D01*
X462309Y517336D01*
X462307Y517335D01*
X462274Y517250D01*
X462274Y511250D01*
X462275Y511248D01*
X462274Y511246D01*
X462294Y511203D01*
X462312Y511159D01*
X462314Y511159D01*
X462315Y511157D01*
X462400Y511124D01*
X465400Y511124D01*
X465402Y511125D01*
G37*
G36*
X469402Y511125D02*
X469402Y511125D01*
X469404Y511124D01*
X469447Y511144D01*
X469491Y511162D01*
X469491Y511164D01*
X469493Y511165D01*
X469526Y511250D01*
X469526Y517250D01*
X469525Y517252D01*
X469526Y517254D01*
X469506Y517297D01*
X469488Y517341D01*
X469486Y517341D01*
X469485Y517343D01*
X469400Y517376D01*
X466400Y517376D01*
X466398Y517375D01*
X466396Y517376D01*
X466353Y517356D01*
X466309Y517338D01*
X466309Y517336D01*
X466307Y517335D01*
X466274Y517250D01*
X466274Y511250D01*
X466275Y511248D01*
X466274Y511246D01*
X466294Y511203D01*
X466312Y511159D01*
X466314Y511159D01*
X466315Y511157D01*
X466400Y511124D01*
X469400Y511124D01*
X469402Y511125D01*
G37*
G36*
X473402Y511125D02*
X473402Y511125D01*
X473404Y511124D01*
X473447Y511144D01*
X473491Y511162D01*
X473491Y511164D01*
X473493Y511165D01*
X473526Y511250D01*
X473526Y517250D01*
X473525Y517252D01*
X473526Y517254D01*
X473506Y517297D01*
X473488Y517341D01*
X473486Y517341D01*
X473485Y517343D01*
X473400Y517376D01*
X470400Y517376D01*
X470398Y517375D01*
X470396Y517376D01*
X470353Y517356D01*
X470309Y517338D01*
X470309Y517336D01*
X470307Y517335D01*
X470274Y517250D01*
X470274Y511250D01*
X470275Y511248D01*
X470274Y511246D01*
X470294Y511203D01*
X470312Y511159D01*
X470314Y511159D01*
X470315Y511157D01*
X470400Y511124D01*
X473400Y511124D01*
X473402Y511125D01*
G37*
G36*
X477402Y511125D02*
X477402Y511125D01*
X477404Y511124D01*
X477447Y511144D01*
X477491Y511162D01*
X477491Y511164D01*
X477493Y511165D01*
X477526Y511250D01*
X477526Y517250D01*
X477525Y517252D01*
X477526Y517254D01*
X477506Y517297D01*
X477488Y517341D01*
X477486Y517341D01*
X477485Y517343D01*
X477400Y517376D01*
X474400Y517376D01*
X474398Y517375D01*
X474396Y517376D01*
X474353Y517356D01*
X474309Y517338D01*
X474309Y517336D01*
X474307Y517335D01*
X474274Y517250D01*
X474274Y511250D01*
X474275Y511248D01*
X474274Y511246D01*
X474294Y511203D01*
X474312Y511159D01*
X474314Y511159D01*
X474315Y511157D01*
X474400Y511124D01*
X477400Y511124D01*
X477402Y511125D01*
G37*
G36*
X477402Y498625D02*
X477402Y498625D01*
X477404Y498624D01*
X477447Y498644D01*
X477491Y498662D01*
X477491Y498664D01*
X477493Y498665D01*
X477526Y498750D01*
X477526Y504750D01*
X477525Y504752D01*
X477526Y504754D01*
X477506Y504797D01*
X477488Y504841D01*
X477486Y504841D01*
X477485Y504843D01*
X477400Y504876D01*
X474400Y504876D01*
X474398Y504875D01*
X474396Y504876D01*
X474353Y504856D01*
X474309Y504838D01*
X474309Y504836D01*
X474307Y504835D01*
X474274Y504750D01*
X474274Y498750D01*
X474275Y498748D01*
X474274Y498746D01*
X474294Y498703D01*
X474312Y498659D01*
X474314Y498659D01*
X474315Y498657D01*
X474400Y498624D01*
X477400Y498624D01*
X477402Y498625D01*
G37*
G36*
X473402Y498625D02*
X473402Y498625D01*
X473404Y498624D01*
X473447Y498644D01*
X473491Y498662D01*
X473491Y498664D01*
X473493Y498665D01*
X473526Y498750D01*
X473526Y504750D01*
X473525Y504752D01*
X473526Y504754D01*
X473506Y504797D01*
X473488Y504841D01*
X473486Y504841D01*
X473485Y504843D01*
X473400Y504876D01*
X470400Y504876D01*
X470398Y504875D01*
X470396Y504876D01*
X470353Y504856D01*
X470309Y504838D01*
X470309Y504836D01*
X470307Y504835D01*
X470274Y504750D01*
X470274Y498750D01*
X470275Y498748D01*
X470274Y498746D01*
X470294Y498703D01*
X470312Y498659D01*
X470314Y498659D01*
X470315Y498657D01*
X470400Y498624D01*
X473400Y498624D01*
X473402Y498625D01*
G37*
G36*
X469402Y498625D02*
X469402Y498625D01*
X469404Y498624D01*
X469447Y498644D01*
X469491Y498662D01*
X469491Y498664D01*
X469493Y498665D01*
X469526Y498750D01*
X469526Y504750D01*
X469525Y504752D01*
X469526Y504754D01*
X469506Y504797D01*
X469488Y504841D01*
X469486Y504841D01*
X469485Y504843D01*
X469400Y504876D01*
X466400Y504876D01*
X466398Y504875D01*
X466396Y504876D01*
X466353Y504856D01*
X466309Y504838D01*
X466309Y504836D01*
X466307Y504835D01*
X466274Y504750D01*
X466274Y498750D01*
X466275Y498748D01*
X466274Y498746D01*
X466294Y498703D01*
X466312Y498659D01*
X466314Y498659D01*
X466315Y498657D01*
X466400Y498624D01*
X469400Y498624D01*
X469402Y498625D01*
G37*
G36*
X465402Y498625D02*
X465402Y498625D01*
X465404Y498624D01*
X465447Y498644D01*
X465491Y498662D01*
X465491Y498664D01*
X465493Y498665D01*
X465526Y498750D01*
X465526Y504750D01*
X465525Y504752D01*
X465526Y504754D01*
X465506Y504797D01*
X465488Y504841D01*
X465486Y504841D01*
X465485Y504843D01*
X465400Y504876D01*
X462400Y504876D01*
X462398Y504875D01*
X462396Y504876D01*
X462353Y504856D01*
X462309Y504838D01*
X462309Y504836D01*
X462307Y504835D01*
X462274Y504750D01*
X462274Y498750D01*
X462275Y498748D01*
X462274Y498746D01*
X462294Y498703D01*
X462312Y498659D01*
X462314Y498659D01*
X462315Y498657D01*
X462400Y498624D01*
X465400Y498624D01*
X465402Y498625D01*
G37*
D10*
X390750Y589650D03*
X384250Y589650D03*
X377750Y589650D03*
X371250Y589650D03*
X371250Y604150D03*
X377750Y604150D03*
X384250Y604150D03*
X390750Y604150D03*
X335650Y587150D03*
X335650Y593650D03*
X335650Y600150D03*
X335650Y606650D03*
X350150Y606650D03*
X350150Y600150D03*
X350150Y593650D03*
X350150Y587150D03*
X441550Y589650D03*
X435050Y589650D03*
X428550Y589650D03*
X422050Y589650D03*
X422050Y604150D03*
X428550Y604150D03*
X435050Y604150D03*
X441550Y604150D03*
D11*
X375200Y558800D03*
X386800Y558800D03*
X286300Y533400D03*
X297900Y533400D03*
D12*
X270900Y622300D03*
X287900Y622300D03*
D11*
X235500Y546100D03*
X247100Y546100D03*
D12*
X410600Y558800D03*
X427600Y558800D03*
X122800Y355600D03*
X105800Y355600D03*
X93100Y228600D03*
X110100Y228600D03*
X67700Y152400D03*
X84700Y152400D03*
X93100Y190500D03*
X110100Y190500D03*
X42300Y355600D03*
X59300Y355600D03*
D13*
X67200Y393700D03*
X85200Y393700D03*
D11*
X375200Y533400D03*
X386800Y533400D03*
D13*
X97900Y266700D03*
X79900Y266700D03*
X97900Y317500D03*
X79900Y317500D03*
D14*
X139700Y156600D03*
X139700Y173600D03*
D12*
X182000Y406400D03*
X199000Y406400D03*
D14*
X469900Y554600D03*
X469900Y537600D03*
D11*
X273600Y596900D03*
X285200Y596900D03*
X413300Y533400D03*
X424900Y533400D03*
X95800Y431800D03*
X107400Y431800D03*
D15*
X88900Y476800D03*
X88900Y488400D03*
X25400Y464100D03*
X25400Y475700D03*
X63500Y463000D03*
X63500Y451400D03*
D16*
X165100Y465400D03*
X165100Y474400D03*
D17*
X393700Y162290D03*
X393700Y167910D03*
D18*
X213090Y165100D03*
X218710Y165100D03*
X479790Y190500D03*
X485410Y190500D03*
X22590Y431800D03*
X28210Y431800D03*
D17*
X304800Y612410D03*
X304800Y606790D03*
X444500Y555990D03*
X444500Y561610D03*
D18*
X390890Y635000D03*
X396510Y635000D03*
D19*
X26946Y643504D02*
X20554Y643504D01*
X20554Y645496D01*
X26946Y645496D01*
X26946Y643504D01*
X26946Y634004D02*
X20554Y634004D01*
X20554Y635996D01*
X26946Y635996D01*
X26946Y634004D01*
X26946Y624504D02*
X20554Y624504D01*
X20554Y626496D01*
X26946Y626496D01*
X26946Y624504D01*
X49254Y626496D02*
X55646Y626496D01*
X55646Y624504D01*
X49254Y624504D01*
X49254Y626496D01*
X49254Y635996D02*
X55646Y635996D01*
X55646Y634004D01*
X49254Y634004D01*
X49254Y635996D01*
X49254Y645496D02*
X55646Y645496D01*
X55646Y643504D01*
X49254Y643504D01*
X49254Y645496D01*
D20*
X38100Y635000D03*
D11*
X324400Y533400D03*
X336000Y533400D03*
D15*
X88900Y95800D03*
X88900Y107400D03*
X292100Y565700D03*
X292100Y577300D03*
D11*
X489500Y546100D03*
X501100Y546100D03*
X184700Y127000D03*
X196300Y127000D03*
D15*
X431800Y629200D03*
X431800Y640800D03*
X190500Y107400D03*
X190500Y95800D03*
D11*
X413300Y165100D03*
X424900Y165100D03*
D15*
X304800Y183600D03*
X304800Y172000D03*
D21*
X245650Y177800D03*
X236950Y177800D03*
D11*
X324400Y558800D03*
X336000Y558800D03*
X121200Y495300D03*
X132800Y495300D03*
X324400Y635000D03*
X336000Y635000D03*
D12*
X207400Y520700D03*
X224400Y520700D03*
D21*
X351250Y508000D03*
X359950Y508000D03*
X385350Y508000D03*
X376650Y508000D03*
D22*
X135100Y594000D03*
X195100Y594000D03*
X135100Y549000D03*
X195100Y549000D03*
X33500Y594000D03*
X93500Y594000D03*
X33500Y549000D03*
X93500Y549000D03*
D23*
X44704Y304800D02*
X31496Y304800D01*
X31496Y279400D02*
X44704Y279400D01*
X44704Y254000D02*
X31496Y254000D01*
X31496Y228600D02*
X44704Y228600D01*
X44704Y203200D02*
X31496Y203200D01*
D24*
X241300Y588600D03*
X241300Y630600D03*
D25*
X463900Y501750D03*
X467900Y501750D03*
X471900Y501750D03*
X475900Y501750D03*
X475900Y514250D03*
X471900Y514250D03*
X467900Y514250D03*
X463900Y514250D03*
D26*
X469900Y508000D03*
D27*
X515625Y629800D03*
X500375Y629800D03*
X500375Y624800D03*
X500375Y619800D03*
X500375Y614800D03*
X515625Y624800D03*
X515625Y619800D03*
X515625Y614800D03*
D28*
X505500Y614675D03*
X505500Y629925D03*
X510500Y629925D03*
X510500Y614675D03*
D27*
X160025Y223400D03*
X144775Y223400D03*
X144775Y218400D03*
X144775Y213400D03*
X144775Y208400D03*
X160025Y218400D03*
X160025Y213400D03*
X160025Y208400D03*
D28*
X149900Y208275D03*
X149900Y223525D03*
X154900Y223525D03*
X154900Y208275D03*
D29*
X370600Y138650D03*
X365600Y138650D03*
X360600Y138650D03*
X355600Y138650D03*
X350600Y138650D03*
X345600Y138650D03*
X340600Y138650D03*
D30*
X336450Y127000D03*
D29*
X340600Y115350D03*
X345600Y115350D03*
X350600Y115350D03*
X355600Y115350D03*
X360600Y115350D03*
X365600Y115350D03*
X370600Y115350D03*
D30*
X374750Y127000D03*
D29*
X429500Y77250D03*
X434500Y77250D03*
X439500Y77250D03*
X444500Y77250D03*
X449500Y77250D03*
X454500Y77250D03*
X459500Y77250D03*
D30*
X463650Y88900D03*
D29*
X459500Y100550D03*
X454500Y100550D03*
X449500Y100550D03*
X444500Y100550D03*
X439500Y100550D03*
X434500Y100550D03*
X429500Y100550D03*
D30*
X425350Y88900D03*
D29*
X281700Y138650D03*
X276700Y138650D03*
X271700Y138650D03*
X266700Y138650D03*
X261700Y138650D03*
X256700Y138650D03*
X251700Y138650D03*
D30*
X247550Y127000D03*
D29*
X251700Y115350D03*
X256700Y115350D03*
X261700Y115350D03*
X266700Y115350D03*
X271700Y115350D03*
X276700Y115350D03*
X281700Y115350D03*
D30*
X285850Y127000D03*
D31*
X243739Y254061D02*
X243739Y268939D01*
X243739Y254061D02*
X241661Y254061D01*
X241661Y268939D01*
X243739Y268939D01*
X243739Y256677D02*
X241661Y256677D01*
X241661Y259293D02*
X243739Y259293D01*
X243739Y261909D02*
X241661Y261909D01*
X241661Y264525D02*
X243739Y264525D01*
X243739Y267141D02*
X241661Y267141D01*
X248739Y268939D02*
X248739Y254061D01*
X246661Y254061D01*
X246661Y268939D01*
X248739Y268939D01*
X248739Y256677D02*
X246661Y256677D01*
X246661Y259293D02*
X248739Y259293D01*
X248739Y261909D02*
X246661Y261909D01*
X246661Y264525D02*
X248739Y264525D01*
X248739Y267141D02*
X246661Y267141D01*
X253739Y268939D02*
X253739Y254061D01*
X251661Y254061D01*
X251661Y268939D01*
X253739Y268939D01*
X253739Y256677D02*
X251661Y256677D01*
X251661Y259293D02*
X253739Y259293D01*
X253739Y261909D02*
X251661Y261909D01*
X251661Y264525D02*
X253739Y264525D01*
X253739Y267141D02*
X251661Y267141D01*
X258739Y268939D02*
X258739Y254061D01*
X256661Y254061D01*
X256661Y268939D01*
X258739Y268939D01*
X258739Y256677D02*
X256661Y256677D01*
X256661Y259293D02*
X258739Y259293D01*
X258739Y261909D02*
X256661Y261909D01*
X256661Y264525D02*
X258739Y264525D01*
X258739Y267141D02*
X256661Y267141D01*
X263739Y268939D02*
X263739Y254061D01*
X261661Y254061D01*
X261661Y268939D01*
X263739Y268939D01*
X263739Y256677D02*
X261661Y256677D01*
X261661Y259293D02*
X263739Y259293D01*
X263739Y261909D02*
X261661Y261909D01*
X261661Y264525D02*
X263739Y264525D01*
X263739Y267141D02*
X261661Y267141D01*
X268739Y268939D02*
X268739Y254061D01*
X266661Y254061D01*
X266661Y268939D01*
X268739Y268939D01*
X268739Y256677D02*
X266661Y256677D01*
X266661Y259293D02*
X268739Y259293D01*
X268739Y261909D02*
X266661Y261909D01*
X266661Y264525D02*
X268739Y264525D01*
X268739Y267141D02*
X266661Y267141D01*
X273739Y268939D02*
X273739Y254061D01*
X271661Y254061D01*
X271661Y268939D01*
X273739Y268939D01*
X273739Y256677D02*
X271661Y256677D01*
X271661Y259293D02*
X273739Y259293D01*
X273739Y261909D02*
X271661Y261909D01*
X271661Y264525D02*
X273739Y264525D01*
X273739Y267141D02*
X271661Y267141D01*
X278739Y268939D02*
X278739Y254061D01*
X276661Y254061D01*
X276661Y268939D01*
X278739Y268939D01*
X278739Y256677D02*
X276661Y256677D01*
X276661Y259293D02*
X278739Y259293D01*
X278739Y261909D02*
X276661Y261909D01*
X276661Y264525D02*
X278739Y264525D01*
X278739Y267141D02*
X276661Y267141D01*
X283739Y268939D02*
X283739Y254061D01*
X281661Y254061D01*
X281661Y268939D01*
X283739Y268939D01*
X283739Y256677D02*
X281661Y256677D01*
X281661Y259293D02*
X283739Y259293D01*
X283739Y261909D02*
X281661Y261909D01*
X281661Y264525D02*
X283739Y264525D01*
X283739Y267141D02*
X281661Y267141D01*
X288739Y268939D02*
X288739Y254061D01*
X286661Y254061D01*
X286661Y268939D01*
X288739Y268939D01*
X288739Y256677D02*
X286661Y256677D01*
X286661Y259293D02*
X288739Y259293D01*
X288739Y261909D02*
X286661Y261909D01*
X286661Y264525D02*
X288739Y264525D01*
X288739Y267141D02*
X286661Y267141D01*
X293739Y268939D02*
X293739Y254061D01*
X291661Y254061D01*
X291661Y268939D01*
X293739Y268939D01*
X293739Y256677D02*
X291661Y256677D01*
X291661Y259293D02*
X293739Y259293D01*
X293739Y261909D02*
X291661Y261909D01*
X291661Y264525D02*
X293739Y264525D01*
X293739Y267141D02*
X291661Y267141D01*
X298739Y268939D02*
X298739Y254061D01*
X296661Y254061D01*
X296661Y268939D01*
X298739Y268939D01*
X298739Y256677D02*
X296661Y256677D01*
X296661Y259293D02*
X298739Y259293D01*
X298739Y261909D02*
X296661Y261909D01*
X296661Y264525D02*
X298739Y264525D01*
X298739Y267141D02*
X296661Y267141D01*
X303739Y268939D02*
X303739Y254061D01*
X301661Y254061D01*
X301661Y268939D01*
X303739Y268939D01*
X303739Y256677D02*
X301661Y256677D01*
X301661Y259293D02*
X303739Y259293D01*
X303739Y261909D02*
X301661Y261909D01*
X301661Y264525D02*
X303739Y264525D01*
X303739Y267141D02*
X301661Y267141D01*
X308739Y268939D02*
X308739Y254061D01*
X306661Y254061D01*
X306661Y268939D01*
X308739Y268939D01*
X308739Y256677D02*
X306661Y256677D01*
X306661Y259293D02*
X308739Y259293D01*
X308739Y261909D02*
X306661Y261909D01*
X306661Y264525D02*
X308739Y264525D01*
X308739Y267141D02*
X306661Y267141D01*
X313739Y268939D02*
X313739Y254061D01*
X311661Y254061D01*
X311661Y268939D01*
X313739Y268939D01*
X313739Y256677D02*
X311661Y256677D01*
X311661Y259293D02*
X313739Y259293D01*
X313739Y261909D02*
X311661Y261909D01*
X311661Y264525D02*
X313739Y264525D01*
X313739Y267141D02*
X311661Y267141D01*
X318739Y268939D02*
X318739Y254061D01*
X316661Y254061D01*
X316661Y268939D01*
X318739Y268939D01*
X318739Y256677D02*
X316661Y256677D01*
X316661Y259293D02*
X318739Y259293D01*
X318739Y261909D02*
X316661Y261909D01*
X316661Y264525D02*
X318739Y264525D01*
X318739Y267141D02*
X316661Y267141D01*
X323739Y268939D02*
X323739Y254061D01*
X321661Y254061D01*
X321661Y268939D01*
X323739Y268939D01*
X323739Y256677D02*
X321661Y256677D01*
X321661Y259293D02*
X323739Y259293D01*
X323739Y261909D02*
X321661Y261909D01*
X321661Y264525D02*
X323739Y264525D01*
X323739Y267141D02*
X321661Y267141D01*
X328739Y268939D02*
X328739Y254061D01*
X326661Y254061D01*
X326661Y268939D01*
X328739Y268939D01*
X328739Y256677D02*
X326661Y256677D01*
X326661Y259293D02*
X328739Y259293D01*
X328739Y261909D02*
X326661Y261909D01*
X326661Y264525D02*
X328739Y264525D01*
X328739Y267141D02*
X326661Y267141D01*
X333739Y268939D02*
X333739Y254061D01*
X331661Y254061D01*
X331661Y268939D01*
X333739Y268939D01*
X333739Y256677D02*
X331661Y256677D01*
X331661Y259293D02*
X333739Y259293D01*
X333739Y261909D02*
X331661Y261909D01*
X331661Y264525D02*
X333739Y264525D01*
X333739Y267141D02*
X331661Y267141D01*
X338739Y268939D02*
X338739Y254061D01*
X336661Y254061D01*
X336661Y268939D01*
X338739Y268939D01*
X338739Y256677D02*
X336661Y256677D01*
X336661Y259293D02*
X338739Y259293D01*
X338739Y261909D02*
X336661Y261909D01*
X336661Y264525D02*
X338739Y264525D01*
X338739Y267141D02*
X336661Y267141D01*
X343739Y268939D02*
X343739Y254061D01*
X341661Y254061D01*
X341661Y268939D01*
X343739Y268939D01*
X343739Y256677D02*
X341661Y256677D01*
X341661Y259293D02*
X343739Y259293D01*
X343739Y261909D02*
X341661Y261909D01*
X341661Y264525D02*
X343739Y264525D01*
X343739Y267141D02*
X341661Y267141D01*
X348739Y268939D02*
X348739Y254061D01*
X346661Y254061D01*
X346661Y268939D01*
X348739Y268939D01*
X348739Y256677D02*
X346661Y256677D01*
X346661Y259293D02*
X348739Y259293D01*
X348739Y261909D02*
X346661Y261909D01*
X346661Y264525D02*
X348739Y264525D01*
X348739Y267141D02*
X346661Y267141D01*
X353739Y268939D02*
X353739Y254061D01*
X351661Y254061D01*
X351661Y268939D01*
X353739Y268939D01*
X353739Y256677D02*
X351661Y256677D01*
X351661Y259293D02*
X353739Y259293D01*
X353739Y261909D02*
X351661Y261909D01*
X351661Y264525D02*
X353739Y264525D01*
X353739Y267141D02*
X351661Y267141D01*
X358739Y268939D02*
X358739Y254061D01*
X356661Y254061D01*
X356661Y268939D01*
X358739Y268939D01*
X358739Y256677D02*
X356661Y256677D01*
X356661Y259293D02*
X358739Y259293D01*
X358739Y261909D02*
X356661Y261909D01*
X356661Y264525D02*
X358739Y264525D01*
X358739Y267141D02*
X356661Y267141D01*
X363739Y268939D02*
X363739Y254061D01*
X361661Y254061D01*
X361661Y268939D01*
X363739Y268939D01*
X363739Y256677D02*
X361661Y256677D01*
X361661Y259293D02*
X363739Y259293D01*
X363739Y261909D02*
X361661Y261909D01*
X361661Y264525D02*
X363739Y264525D01*
X363739Y267141D02*
X361661Y267141D01*
X368739Y268939D02*
X368739Y254061D01*
X366661Y254061D01*
X366661Y268939D01*
X368739Y268939D01*
X368739Y256677D02*
X366661Y256677D01*
X366661Y259293D02*
X368739Y259293D01*
X368739Y261909D02*
X366661Y261909D01*
X366661Y264525D02*
X368739Y264525D01*
X368739Y267141D02*
X366661Y267141D01*
X373739Y268939D02*
X373739Y254061D01*
X371661Y254061D01*
X371661Y268939D01*
X373739Y268939D01*
X373739Y256677D02*
X371661Y256677D01*
X371661Y259293D02*
X373739Y259293D01*
X373739Y261909D02*
X371661Y261909D01*
X371661Y264525D02*
X373739Y264525D01*
X373739Y267141D02*
X371661Y267141D01*
X378739Y268939D02*
X378739Y254061D01*
X376661Y254061D01*
X376661Y268939D01*
X378739Y268939D01*
X378739Y256677D02*
X376661Y256677D01*
X376661Y259293D02*
X378739Y259293D01*
X378739Y261909D02*
X376661Y261909D01*
X376661Y264525D02*
X378739Y264525D01*
X378739Y267141D02*
X376661Y267141D01*
X383739Y268939D02*
X383739Y254061D01*
X381661Y254061D01*
X381661Y268939D01*
X383739Y268939D01*
X383739Y256677D02*
X381661Y256677D01*
X381661Y259293D02*
X383739Y259293D01*
X383739Y261909D02*
X381661Y261909D01*
X381661Y264525D02*
X383739Y264525D01*
X383739Y267141D02*
X381661Y267141D01*
X388739Y268939D02*
X388739Y254061D01*
X386661Y254061D01*
X386661Y268939D01*
X388739Y268939D01*
X388739Y256677D02*
X386661Y256677D01*
X386661Y259293D02*
X388739Y259293D01*
X388739Y261909D02*
X386661Y261909D01*
X386661Y264525D02*
X388739Y264525D01*
X388739Y267141D02*
X386661Y267141D01*
X393739Y268939D02*
X393739Y254061D01*
X391661Y254061D01*
X391661Y268939D01*
X393739Y268939D01*
X393739Y256677D02*
X391661Y256677D01*
X391661Y259293D02*
X393739Y259293D01*
X393739Y261909D02*
X391661Y261909D01*
X391661Y264525D02*
X393739Y264525D01*
X393739Y267141D02*
X391661Y267141D01*
X398739Y268939D02*
X398739Y254061D01*
X396661Y254061D01*
X396661Y268939D01*
X398739Y268939D01*
X398739Y256677D02*
X396661Y256677D01*
X396661Y259293D02*
X398739Y259293D01*
X398739Y261909D02*
X396661Y261909D01*
X396661Y264525D02*
X398739Y264525D01*
X398739Y267141D02*
X396661Y267141D01*
X403739Y268939D02*
X403739Y254061D01*
X401661Y254061D01*
X401661Y268939D01*
X403739Y268939D01*
X403739Y256677D02*
X401661Y256677D01*
X401661Y259293D02*
X403739Y259293D01*
X403739Y261909D02*
X401661Y261909D01*
X401661Y264525D02*
X403739Y264525D01*
X403739Y267141D02*
X401661Y267141D01*
X408739Y268939D02*
X408739Y254061D01*
X406661Y254061D01*
X406661Y268939D01*
X408739Y268939D01*
X408739Y256677D02*
X406661Y256677D01*
X406661Y259293D02*
X408739Y259293D01*
X408739Y261909D02*
X406661Y261909D01*
X406661Y264525D02*
X408739Y264525D01*
X408739Y267141D02*
X406661Y267141D01*
X413739Y268939D02*
X413739Y254061D01*
X411661Y254061D01*
X411661Y268939D01*
X413739Y268939D01*
X413739Y256677D02*
X411661Y256677D01*
X411661Y259293D02*
X413739Y259293D01*
X413739Y261909D02*
X411661Y261909D01*
X411661Y264525D02*
X413739Y264525D01*
X413739Y267141D02*
X411661Y267141D01*
X418739Y268939D02*
X418739Y254061D01*
X416661Y254061D01*
X416661Y268939D01*
X418739Y268939D01*
X418739Y256677D02*
X416661Y256677D01*
X416661Y259293D02*
X418739Y259293D01*
X418739Y261909D02*
X416661Y261909D01*
X416661Y264525D02*
X418739Y264525D01*
X418739Y267141D02*
X416661Y267141D01*
X418739Y467661D02*
X418739Y482539D01*
X418739Y467661D02*
X416661Y467661D01*
X416661Y482539D01*
X418739Y482539D01*
X418739Y470277D02*
X416661Y470277D01*
X416661Y472893D02*
X418739Y472893D01*
X418739Y475509D02*
X416661Y475509D01*
X416661Y478125D02*
X418739Y478125D01*
X418739Y480741D02*
X416661Y480741D01*
X413739Y482539D02*
X413739Y467661D01*
X411661Y467661D01*
X411661Y482539D01*
X413739Y482539D01*
X413739Y470277D02*
X411661Y470277D01*
X411661Y472893D02*
X413739Y472893D01*
X413739Y475509D02*
X411661Y475509D01*
X411661Y478125D02*
X413739Y478125D01*
X413739Y480741D02*
X411661Y480741D01*
X408739Y482539D02*
X408739Y467661D01*
X406661Y467661D01*
X406661Y482539D01*
X408739Y482539D01*
X408739Y470277D02*
X406661Y470277D01*
X406661Y472893D02*
X408739Y472893D01*
X408739Y475509D02*
X406661Y475509D01*
X406661Y478125D02*
X408739Y478125D01*
X408739Y480741D02*
X406661Y480741D01*
X403739Y482539D02*
X403739Y467661D01*
X401661Y467661D01*
X401661Y482539D01*
X403739Y482539D01*
X403739Y470277D02*
X401661Y470277D01*
X401661Y472893D02*
X403739Y472893D01*
X403739Y475509D02*
X401661Y475509D01*
X401661Y478125D02*
X403739Y478125D01*
X403739Y480741D02*
X401661Y480741D01*
X398739Y482539D02*
X398739Y467661D01*
X396661Y467661D01*
X396661Y482539D01*
X398739Y482539D01*
X398739Y470277D02*
X396661Y470277D01*
X396661Y472893D02*
X398739Y472893D01*
X398739Y475509D02*
X396661Y475509D01*
X396661Y478125D02*
X398739Y478125D01*
X398739Y480741D02*
X396661Y480741D01*
X393739Y482539D02*
X393739Y467661D01*
X391661Y467661D01*
X391661Y482539D01*
X393739Y482539D01*
X393739Y470277D02*
X391661Y470277D01*
X391661Y472893D02*
X393739Y472893D01*
X393739Y475509D02*
X391661Y475509D01*
X391661Y478125D02*
X393739Y478125D01*
X393739Y480741D02*
X391661Y480741D01*
X388739Y482539D02*
X388739Y467661D01*
X386661Y467661D01*
X386661Y482539D01*
X388739Y482539D01*
X388739Y470277D02*
X386661Y470277D01*
X386661Y472893D02*
X388739Y472893D01*
X388739Y475509D02*
X386661Y475509D01*
X386661Y478125D02*
X388739Y478125D01*
X388739Y480741D02*
X386661Y480741D01*
X383739Y482539D02*
X383739Y467661D01*
X381661Y467661D01*
X381661Y482539D01*
X383739Y482539D01*
X383739Y470277D02*
X381661Y470277D01*
X381661Y472893D02*
X383739Y472893D01*
X383739Y475509D02*
X381661Y475509D01*
X381661Y478125D02*
X383739Y478125D01*
X383739Y480741D02*
X381661Y480741D01*
X378739Y482539D02*
X378739Y467661D01*
X376661Y467661D01*
X376661Y482539D01*
X378739Y482539D01*
X378739Y470277D02*
X376661Y470277D01*
X376661Y472893D02*
X378739Y472893D01*
X378739Y475509D02*
X376661Y475509D01*
X376661Y478125D02*
X378739Y478125D01*
X378739Y480741D02*
X376661Y480741D01*
X373739Y482539D02*
X373739Y467661D01*
X371661Y467661D01*
X371661Y482539D01*
X373739Y482539D01*
X373739Y470277D02*
X371661Y470277D01*
X371661Y472893D02*
X373739Y472893D01*
X373739Y475509D02*
X371661Y475509D01*
X371661Y478125D02*
X373739Y478125D01*
X373739Y480741D02*
X371661Y480741D01*
X368739Y482539D02*
X368739Y467661D01*
X366661Y467661D01*
X366661Y482539D01*
X368739Y482539D01*
X368739Y470277D02*
X366661Y470277D01*
X366661Y472893D02*
X368739Y472893D01*
X368739Y475509D02*
X366661Y475509D01*
X366661Y478125D02*
X368739Y478125D01*
X368739Y480741D02*
X366661Y480741D01*
X363739Y482539D02*
X363739Y467661D01*
X361661Y467661D01*
X361661Y482539D01*
X363739Y482539D01*
X363739Y470277D02*
X361661Y470277D01*
X361661Y472893D02*
X363739Y472893D01*
X363739Y475509D02*
X361661Y475509D01*
X361661Y478125D02*
X363739Y478125D01*
X363739Y480741D02*
X361661Y480741D01*
X358739Y482539D02*
X358739Y467661D01*
X356661Y467661D01*
X356661Y482539D01*
X358739Y482539D01*
X358739Y470277D02*
X356661Y470277D01*
X356661Y472893D02*
X358739Y472893D01*
X358739Y475509D02*
X356661Y475509D01*
X356661Y478125D02*
X358739Y478125D01*
X358739Y480741D02*
X356661Y480741D01*
X353739Y482539D02*
X353739Y467661D01*
X351661Y467661D01*
X351661Y482539D01*
X353739Y482539D01*
X353739Y470277D02*
X351661Y470277D01*
X351661Y472893D02*
X353739Y472893D01*
X353739Y475509D02*
X351661Y475509D01*
X351661Y478125D02*
X353739Y478125D01*
X353739Y480741D02*
X351661Y480741D01*
X348739Y482539D02*
X348739Y467661D01*
X346661Y467661D01*
X346661Y482539D01*
X348739Y482539D01*
X348739Y470277D02*
X346661Y470277D01*
X346661Y472893D02*
X348739Y472893D01*
X348739Y475509D02*
X346661Y475509D01*
X346661Y478125D02*
X348739Y478125D01*
X348739Y480741D02*
X346661Y480741D01*
X343739Y482539D02*
X343739Y467661D01*
X341661Y467661D01*
X341661Y482539D01*
X343739Y482539D01*
X343739Y470277D02*
X341661Y470277D01*
X341661Y472893D02*
X343739Y472893D01*
X343739Y475509D02*
X341661Y475509D01*
X341661Y478125D02*
X343739Y478125D01*
X343739Y480741D02*
X341661Y480741D01*
X338739Y482539D02*
X338739Y467661D01*
X336661Y467661D01*
X336661Y482539D01*
X338739Y482539D01*
X338739Y470277D02*
X336661Y470277D01*
X336661Y472893D02*
X338739Y472893D01*
X338739Y475509D02*
X336661Y475509D01*
X336661Y478125D02*
X338739Y478125D01*
X338739Y480741D02*
X336661Y480741D01*
X333739Y482539D02*
X333739Y467661D01*
X331661Y467661D01*
X331661Y482539D01*
X333739Y482539D01*
X333739Y470277D02*
X331661Y470277D01*
X331661Y472893D02*
X333739Y472893D01*
X333739Y475509D02*
X331661Y475509D01*
X331661Y478125D02*
X333739Y478125D01*
X333739Y480741D02*
X331661Y480741D01*
X328739Y482539D02*
X328739Y467661D01*
X326661Y467661D01*
X326661Y482539D01*
X328739Y482539D01*
X328739Y470277D02*
X326661Y470277D01*
X326661Y472893D02*
X328739Y472893D01*
X328739Y475509D02*
X326661Y475509D01*
X326661Y478125D02*
X328739Y478125D01*
X328739Y480741D02*
X326661Y480741D01*
X323739Y482539D02*
X323739Y467661D01*
X321661Y467661D01*
X321661Y482539D01*
X323739Y482539D01*
X323739Y470277D02*
X321661Y470277D01*
X321661Y472893D02*
X323739Y472893D01*
X323739Y475509D02*
X321661Y475509D01*
X321661Y478125D02*
X323739Y478125D01*
X323739Y480741D02*
X321661Y480741D01*
X318739Y482539D02*
X318739Y467661D01*
X316661Y467661D01*
X316661Y482539D01*
X318739Y482539D01*
X318739Y470277D02*
X316661Y470277D01*
X316661Y472893D02*
X318739Y472893D01*
X318739Y475509D02*
X316661Y475509D01*
X316661Y478125D02*
X318739Y478125D01*
X318739Y480741D02*
X316661Y480741D01*
X313739Y482539D02*
X313739Y467661D01*
X311661Y467661D01*
X311661Y482539D01*
X313739Y482539D01*
X313739Y470277D02*
X311661Y470277D01*
X311661Y472893D02*
X313739Y472893D01*
X313739Y475509D02*
X311661Y475509D01*
X311661Y478125D02*
X313739Y478125D01*
X313739Y480741D02*
X311661Y480741D01*
X308739Y482539D02*
X308739Y467661D01*
X306661Y467661D01*
X306661Y482539D01*
X308739Y482539D01*
X308739Y470277D02*
X306661Y470277D01*
X306661Y472893D02*
X308739Y472893D01*
X308739Y475509D02*
X306661Y475509D01*
X306661Y478125D02*
X308739Y478125D01*
X308739Y480741D02*
X306661Y480741D01*
X303739Y482539D02*
X303739Y467661D01*
X301661Y467661D01*
X301661Y482539D01*
X303739Y482539D01*
X303739Y470277D02*
X301661Y470277D01*
X301661Y472893D02*
X303739Y472893D01*
X303739Y475509D02*
X301661Y475509D01*
X301661Y478125D02*
X303739Y478125D01*
X303739Y480741D02*
X301661Y480741D01*
X298739Y482539D02*
X298739Y467661D01*
X296661Y467661D01*
X296661Y482539D01*
X298739Y482539D01*
X298739Y470277D02*
X296661Y470277D01*
X296661Y472893D02*
X298739Y472893D01*
X298739Y475509D02*
X296661Y475509D01*
X296661Y478125D02*
X298739Y478125D01*
X298739Y480741D02*
X296661Y480741D01*
X293739Y482539D02*
X293739Y467661D01*
X291661Y467661D01*
X291661Y482539D01*
X293739Y482539D01*
X293739Y470277D02*
X291661Y470277D01*
X291661Y472893D02*
X293739Y472893D01*
X293739Y475509D02*
X291661Y475509D01*
X291661Y478125D02*
X293739Y478125D01*
X293739Y480741D02*
X291661Y480741D01*
X288739Y482539D02*
X288739Y467661D01*
X286661Y467661D01*
X286661Y482539D01*
X288739Y482539D01*
X288739Y470277D02*
X286661Y470277D01*
X286661Y472893D02*
X288739Y472893D01*
X288739Y475509D02*
X286661Y475509D01*
X286661Y478125D02*
X288739Y478125D01*
X288739Y480741D02*
X286661Y480741D01*
X283739Y482539D02*
X283739Y467661D01*
X281661Y467661D01*
X281661Y482539D01*
X283739Y482539D01*
X283739Y470277D02*
X281661Y470277D01*
X281661Y472893D02*
X283739Y472893D01*
X283739Y475509D02*
X281661Y475509D01*
X281661Y478125D02*
X283739Y478125D01*
X283739Y480741D02*
X281661Y480741D01*
X278739Y482539D02*
X278739Y467661D01*
X276661Y467661D01*
X276661Y482539D01*
X278739Y482539D01*
X278739Y470277D02*
X276661Y470277D01*
X276661Y472893D02*
X278739Y472893D01*
X278739Y475509D02*
X276661Y475509D01*
X276661Y478125D02*
X278739Y478125D01*
X278739Y480741D02*
X276661Y480741D01*
X273739Y482539D02*
X273739Y467661D01*
X271661Y467661D01*
X271661Y482539D01*
X273739Y482539D01*
X273739Y470277D02*
X271661Y470277D01*
X271661Y472893D02*
X273739Y472893D01*
X273739Y475509D02*
X271661Y475509D01*
X271661Y478125D02*
X273739Y478125D01*
X273739Y480741D02*
X271661Y480741D01*
X268739Y482539D02*
X268739Y467661D01*
X266661Y467661D01*
X266661Y482539D01*
X268739Y482539D01*
X268739Y470277D02*
X266661Y470277D01*
X266661Y472893D02*
X268739Y472893D01*
X268739Y475509D02*
X266661Y475509D01*
X266661Y478125D02*
X268739Y478125D01*
X268739Y480741D02*
X266661Y480741D01*
X263739Y482539D02*
X263739Y467661D01*
X261661Y467661D01*
X261661Y482539D01*
X263739Y482539D01*
X263739Y470277D02*
X261661Y470277D01*
X261661Y472893D02*
X263739Y472893D01*
X263739Y475509D02*
X261661Y475509D01*
X261661Y478125D02*
X263739Y478125D01*
X263739Y480741D02*
X261661Y480741D01*
X258739Y482539D02*
X258739Y467661D01*
X256661Y467661D01*
X256661Y482539D01*
X258739Y482539D01*
X258739Y470277D02*
X256661Y470277D01*
X256661Y472893D02*
X258739Y472893D01*
X258739Y475509D02*
X256661Y475509D01*
X256661Y478125D02*
X258739Y478125D01*
X258739Y480741D02*
X256661Y480741D01*
X253739Y482539D02*
X253739Y467661D01*
X251661Y467661D01*
X251661Y482539D01*
X253739Y482539D01*
X253739Y470277D02*
X251661Y470277D01*
X251661Y472893D02*
X253739Y472893D01*
X253739Y475509D02*
X251661Y475509D01*
X251661Y478125D02*
X253739Y478125D01*
X253739Y480741D02*
X251661Y480741D01*
X248739Y482539D02*
X248739Y467661D01*
X246661Y467661D01*
X246661Y482539D01*
X248739Y482539D01*
X248739Y470277D02*
X246661Y470277D01*
X246661Y472893D02*
X248739Y472893D01*
X248739Y475509D02*
X246661Y475509D01*
X246661Y478125D02*
X248739Y478125D01*
X248739Y480741D02*
X246661Y480741D01*
X243739Y482539D02*
X243739Y467661D01*
X241661Y467661D01*
X241661Y482539D01*
X243739Y482539D01*
X243739Y470277D02*
X241661Y470277D01*
X241661Y472893D02*
X243739Y472893D01*
X243739Y475509D02*
X241661Y475509D01*
X241661Y478125D02*
X243739Y478125D01*
X243739Y480741D02*
X241661Y480741D01*
X230839Y454761D02*
X215961Y454761D01*
X215961Y456839D01*
X230839Y456839D01*
X230839Y454761D01*
X230839Y449761D02*
X215961Y449761D01*
X215961Y451839D01*
X230839Y451839D01*
X230839Y449761D01*
X230839Y444761D02*
X215961Y444761D01*
X215961Y446839D01*
X230839Y446839D01*
X230839Y444761D01*
X230839Y439761D02*
X215961Y439761D01*
X215961Y441839D01*
X230839Y441839D01*
X230839Y439761D01*
X230839Y434761D02*
X215961Y434761D01*
X215961Y436839D01*
X230839Y436839D01*
X230839Y434761D01*
X230839Y429761D02*
X215961Y429761D01*
X215961Y431839D01*
X230839Y431839D01*
X230839Y429761D01*
X230839Y424761D02*
X215961Y424761D01*
X215961Y426839D01*
X230839Y426839D01*
X230839Y424761D01*
X230839Y419761D02*
X215961Y419761D01*
X215961Y421839D01*
X230839Y421839D01*
X230839Y419761D01*
X230839Y414761D02*
X215961Y414761D01*
X215961Y416839D01*
X230839Y416839D01*
X230839Y414761D01*
X230839Y409761D02*
X215961Y409761D01*
X215961Y411839D01*
X230839Y411839D01*
X230839Y409761D01*
X230839Y404761D02*
X215961Y404761D01*
X215961Y406839D01*
X230839Y406839D01*
X230839Y404761D01*
X230839Y399761D02*
X215961Y399761D01*
X215961Y401839D01*
X230839Y401839D01*
X230839Y399761D01*
X230839Y394761D02*
X215961Y394761D01*
X215961Y396839D01*
X230839Y396839D01*
X230839Y394761D01*
X230839Y389761D02*
X215961Y389761D01*
X215961Y391839D01*
X230839Y391839D01*
X230839Y389761D01*
X230839Y384761D02*
X215961Y384761D01*
X215961Y386839D01*
X230839Y386839D01*
X230839Y384761D01*
X230839Y379761D02*
X215961Y379761D01*
X215961Y381839D01*
X230839Y381839D01*
X230839Y379761D01*
X230839Y374761D02*
X215961Y374761D01*
X215961Y376839D01*
X230839Y376839D01*
X230839Y374761D01*
X230839Y369761D02*
X215961Y369761D01*
X215961Y371839D01*
X230839Y371839D01*
X230839Y369761D01*
X230839Y364761D02*
X215961Y364761D01*
X215961Y366839D01*
X230839Y366839D01*
X230839Y364761D01*
X230839Y359761D02*
X215961Y359761D01*
X215961Y361839D01*
X230839Y361839D01*
X230839Y359761D01*
X230839Y354761D02*
X215961Y354761D01*
X215961Y356839D01*
X230839Y356839D01*
X230839Y354761D01*
X230839Y349761D02*
X215961Y349761D01*
X215961Y351839D01*
X230839Y351839D01*
X230839Y349761D01*
X230839Y344761D02*
X215961Y344761D01*
X215961Y346839D01*
X230839Y346839D01*
X230839Y344761D01*
X230839Y339761D02*
X215961Y339761D01*
X215961Y341839D01*
X230839Y341839D01*
X230839Y339761D01*
X230839Y334761D02*
X215961Y334761D01*
X215961Y336839D01*
X230839Y336839D01*
X230839Y334761D01*
X230839Y329761D02*
X215961Y329761D01*
X215961Y331839D01*
X230839Y331839D01*
X230839Y329761D01*
X230839Y324761D02*
X215961Y324761D01*
X215961Y326839D01*
X230839Y326839D01*
X230839Y324761D01*
X230839Y319761D02*
X215961Y319761D01*
X215961Y321839D01*
X230839Y321839D01*
X230839Y319761D01*
X230839Y314761D02*
X215961Y314761D01*
X215961Y316839D01*
X230839Y316839D01*
X230839Y314761D01*
X230839Y309761D02*
X215961Y309761D01*
X215961Y311839D01*
X230839Y311839D01*
X230839Y309761D01*
X230839Y304761D02*
X215961Y304761D01*
X215961Y306839D01*
X230839Y306839D01*
X230839Y304761D01*
X230839Y299761D02*
X215961Y299761D01*
X215961Y301839D01*
X230839Y301839D01*
X230839Y299761D01*
X230839Y294761D02*
X215961Y294761D01*
X215961Y296839D01*
X230839Y296839D01*
X230839Y294761D01*
X230839Y289761D02*
X215961Y289761D01*
X215961Y291839D01*
X230839Y291839D01*
X230839Y289761D01*
X230839Y284761D02*
X215961Y284761D01*
X215961Y286839D01*
X230839Y286839D01*
X230839Y284761D01*
X230839Y279761D02*
X215961Y279761D01*
X215961Y281839D01*
X230839Y281839D01*
X230839Y279761D01*
X429561Y279761D02*
X444439Y279761D01*
X429561Y279761D02*
X429561Y281839D01*
X444439Y281839D01*
X444439Y279761D01*
X444439Y284761D02*
X429561Y284761D01*
X429561Y286839D01*
X444439Y286839D01*
X444439Y284761D01*
X444439Y289761D02*
X429561Y289761D01*
X429561Y291839D01*
X444439Y291839D01*
X444439Y289761D01*
X444439Y294761D02*
X429561Y294761D01*
X429561Y296839D01*
X444439Y296839D01*
X444439Y294761D01*
X444439Y299761D02*
X429561Y299761D01*
X429561Y301839D01*
X444439Y301839D01*
X444439Y299761D01*
X444439Y304761D02*
X429561Y304761D01*
X429561Y306839D01*
X444439Y306839D01*
X444439Y304761D01*
X444439Y309761D02*
X429561Y309761D01*
X429561Y311839D01*
X444439Y311839D01*
X444439Y309761D01*
X444439Y314761D02*
X429561Y314761D01*
X429561Y316839D01*
X444439Y316839D01*
X444439Y314761D01*
X444439Y319761D02*
X429561Y319761D01*
X429561Y321839D01*
X444439Y321839D01*
X444439Y319761D01*
X444439Y324761D02*
X429561Y324761D01*
X429561Y326839D01*
X444439Y326839D01*
X444439Y324761D01*
X444439Y329761D02*
X429561Y329761D01*
X429561Y331839D01*
X444439Y331839D01*
X444439Y329761D01*
X444439Y334761D02*
X429561Y334761D01*
X429561Y336839D01*
X444439Y336839D01*
X444439Y334761D01*
X444439Y339761D02*
X429561Y339761D01*
X429561Y341839D01*
X444439Y341839D01*
X444439Y339761D01*
X444439Y344761D02*
X429561Y344761D01*
X429561Y346839D01*
X444439Y346839D01*
X444439Y344761D01*
X444439Y349761D02*
X429561Y349761D01*
X429561Y351839D01*
X444439Y351839D01*
X444439Y349761D01*
X444439Y354761D02*
X429561Y354761D01*
X429561Y356839D01*
X444439Y356839D01*
X444439Y354761D01*
X444439Y359761D02*
X429561Y359761D01*
X429561Y361839D01*
X444439Y361839D01*
X444439Y359761D01*
X444439Y364761D02*
X429561Y364761D01*
X429561Y366839D01*
X444439Y366839D01*
X444439Y364761D01*
X444439Y369761D02*
X429561Y369761D01*
X429561Y371839D01*
X444439Y371839D01*
X444439Y369761D01*
X444439Y374761D02*
X429561Y374761D01*
X429561Y376839D01*
X444439Y376839D01*
X444439Y374761D01*
X444439Y379761D02*
X429561Y379761D01*
X429561Y381839D01*
X444439Y381839D01*
X444439Y379761D01*
X444439Y384761D02*
X429561Y384761D01*
X429561Y386839D01*
X444439Y386839D01*
X444439Y384761D01*
X444439Y389761D02*
X429561Y389761D01*
X429561Y391839D01*
X444439Y391839D01*
X444439Y389761D01*
X444439Y394761D02*
X429561Y394761D01*
X429561Y396839D01*
X444439Y396839D01*
X444439Y394761D01*
X444439Y399761D02*
X429561Y399761D01*
X429561Y401839D01*
X444439Y401839D01*
X444439Y399761D01*
X444439Y404761D02*
X429561Y404761D01*
X429561Y406839D01*
X444439Y406839D01*
X444439Y404761D01*
X444439Y409761D02*
X429561Y409761D01*
X429561Y411839D01*
X444439Y411839D01*
X444439Y409761D01*
X444439Y414761D02*
X429561Y414761D01*
X429561Y416839D01*
X444439Y416839D01*
X444439Y414761D01*
X444439Y419761D02*
X429561Y419761D01*
X429561Y421839D01*
X444439Y421839D01*
X444439Y419761D01*
X444439Y424761D02*
X429561Y424761D01*
X429561Y426839D01*
X444439Y426839D01*
X444439Y424761D01*
X444439Y429761D02*
X429561Y429761D01*
X429561Y431839D01*
X444439Y431839D01*
X444439Y429761D01*
X444439Y434761D02*
X429561Y434761D01*
X429561Y436839D01*
X444439Y436839D01*
X444439Y434761D01*
X444439Y439761D02*
X429561Y439761D01*
X429561Y441839D01*
X444439Y441839D01*
X444439Y439761D01*
X444439Y444761D02*
X429561Y444761D01*
X429561Y446839D01*
X444439Y446839D01*
X444439Y444761D01*
X444439Y449761D02*
X429561Y449761D01*
X429561Y451839D01*
X444439Y451839D01*
X444439Y449761D01*
X444439Y454761D02*
X429561Y454761D01*
X429561Y456839D01*
X444439Y456839D01*
X444439Y454761D01*
D27*
X172725Y515500D03*
X157475Y515500D03*
X157475Y510500D03*
X157475Y505500D03*
X157475Y500500D03*
X172725Y510500D03*
X172725Y505500D03*
X172725Y500500D03*
D28*
X162600Y500375D03*
X162600Y515625D03*
X167600Y515625D03*
X167600Y500375D03*
D32*
X26600Y92100D03*
X49600Y92100D03*
X49600Y111100D03*
X26600Y111100D03*
D33*
X277100Y51100D03*
X262100Y51100D03*
X247100Y51100D03*
X232100Y51100D03*
X217100Y51100D03*
X202100Y51100D03*
X391400Y51100D03*
X376400Y51100D03*
X361400Y51100D03*
X346400Y51100D03*
X331400Y51100D03*
X316400Y51100D03*
X162800Y51100D03*
X147800Y51100D03*
X132800Y51100D03*
X117800Y51100D03*
X102800Y51100D03*
X87800Y51100D03*
D34*
X482600Y257700D03*
X482600Y275700D03*
D15*
X330200Y184700D03*
X330200Y196300D03*
X469900Y234400D03*
X469900Y222800D03*
D21*
X262350Y165100D03*
X271050Y165100D03*
X440150Y165100D03*
X448850Y165100D03*
D12*
X220100Y215900D03*
X237100Y215900D03*
X296300Y215900D03*
X313300Y215900D03*
X347100Y190500D03*
X364100Y190500D03*
X347100Y215900D03*
X364100Y215900D03*
X347100Y165100D03*
X364100Y165100D03*
X423300Y215900D03*
X440300Y215900D03*
X143900Y127000D03*
X160900Y127000D03*
X46600Y38100D03*
X29600Y38100D03*
X93100Y520700D03*
X110100Y520700D03*
X131200Y266700D03*
X148200Y266700D03*
D14*
X482600Y143900D03*
X482600Y160900D03*
D12*
X436000Y50800D03*
X453000Y50800D03*
X461400Y635000D03*
X478400Y635000D03*
D35*
X328613Y593725D03*
X296863Y608013D03*
X52388Y617538D03*
X236538Y555625D03*
X287338Y542925D03*
X374650Y542925D03*
X336550Y644525D03*
X254000Y274638D03*
X319088Y274638D03*
X368300Y274638D03*
X423863Y268288D03*
X450850Y336550D03*
X358775Y488950D03*
X450850Y455613D03*
X165100Y593725D03*
X377825Y596900D03*
X146050Y495300D03*
X412750Y635000D03*
X355600Y147638D03*
X157163Y465138D03*
X369888Y147638D03*
X150813Y511175D03*
X53975Y450850D03*
X449263Y588963D03*
X95250Y152400D03*
X482600Y133350D03*
X471488Y276225D03*
X312738Y461963D03*
X361950Y461963D03*
X423863Y450850D03*
X134938Y219075D03*
X247650Y555625D03*
X423863Y336550D03*
X333375Y280988D03*
X295275Y203200D03*
X347663Y177800D03*
X285750Y587375D03*
X34925Y476250D03*
X425450Y523875D03*
X79375Y488950D03*
X66675Y404813D03*
X414338Y588963D03*
X481013Y554038D03*
X73025Y346075D03*
X346075Y403225D03*
X258763Y495300D03*
X323850Y542925D03*
X265113Y488950D03*
X288925Y492125D03*
X307975Y247650D03*
X307975Y280988D03*
X358775Y385763D03*
X357188Y442913D03*
X419100Y288925D03*
X388938Y461963D03*
X420688Y425450D03*
X481013Y496888D03*
X465138Y476250D03*
X209550Y280988D03*
X236538Y260350D03*
X184150Y136525D03*
X184150Y220663D03*
X390525Y427038D03*
X392113Y450850D03*
X412750Y192088D03*
X352425Y415925D03*
X395288Y584200D03*
X381000Y569913D03*
X244475Y115888D03*
X268288Y247650D03*
X277813Y106363D03*
X322263Y228600D03*
X236538Y412750D03*
X268288Y501650D03*
X206375Y492125D03*
X236538Y457200D03*
X173038Y293688D03*
X236538Y357188D03*
X160338Y307975D03*
X201613Y352425D03*
X166688Y300038D03*
X207963Y346075D03*
X187325Y293688D03*
X236538Y342900D03*
X493713Y628650D03*
X349250Y554038D03*
X520700Y635000D03*
X509588Y636588D03*
X358775Y555625D03*
X508000Y622300D03*
X317500Y488950D03*
X500063Y276225D03*
X346075Y123825D03*
X466725Y322263D03*
X466725Y361950D03*
X431800Y479425D03*
X377825Y114300D03*
X508000Y79375D03*
X520700Y92075D03*
X411163Y495300D03*
X382588Y133350D03*
X404813Y461963D03*
X520700Y103188D03*
X477838Y285750D03*
X471488Y188913D03*
X493713Y211138D03*
X430213Y141288D03*
X458788Y274638D03*
X339725Y396875D03*
X423863Y327025D03*
X50800Y315913D03*
X298450Y446088D03*
X282575Y501650D03*
X457200Y501650D03*
X303213Y461963D03*
X255588Y123825D03*
X252413Y161925D03*
X439738Y85725D03*
X506413Y188913D03*
X519113Y301625D03*
X446088Y473075D03*
X333375Y114300D03*
X334963Y492125D03*
X361950Y153988D03*
X450850Y303213D03*
X368300Y508000D03*
X322263Y455613D03*
X261938Y193675D03*
X336550Y242888D03*
X471488Y88900D03*
X496888Y114300D03*
X277813Y193675D03*
X346075Y244475D03*
X439738Y174625D03*
X382588Y230188D03*
X342900Y274638D03*
X355600Y247650D03*
X327025Y147638D03*
X265113Y69850D03*
X203200Y247650D03*
M02*
