M48
;GenerationSoftware,Autodesk,EAGLE,9.6.2*%
;CreationDate,2024-02-08T03:36:00Z*%
FMAT,2
ICI,OFF
METRIC,TZ,000.000
T3C0.350
T2C0.700
T1C0.813
%
G90
M71
T1
X3810Y25400
X3810Y30480
X3810Y27940
X3810Y22860
X3810Y20320
T2
X8780Y5110
X27710Y5110
X26210Y5110
X24710Y5110
X23210Y5110
X21710Y5110
X20210Y5110
X39140Y5110
X37640Y5110
X36140Y5110
X34640Y5110
X33140Y5110
X31640Y5110
X16280Y5110
X14780Y5110
X13280Y5110
X11780Y5110
X10280Y5110
T3
X44926Y58896
X9525Y15240
X48260Y13335
X47149Y27622
X31274Y46196
X36195Y46196
X42386Y45085
X13494Y21907
X24765Y55562
X42386Y33655
X33338Y28099
X29527Y20320
X34766Y17780
X28575Y58737
X3492Y47625
X42545Y52387
X7937Y48895
X6667Y40481
X41434Y58896
X48101Y55404
X7302Y34608
X34608Y40323
X25876Y49530
X32385Y54292
X26511Y48895
X28892Y49212
X30797Y24765
X30797Y28099
X35878Y38576
X35719Y44291
X41910Y28892
X38894Y46196
X42069Y42545
X48101Y49689
X46514Y47625
X20955Y28099
X23654Y26035
X18415Y13652
X18415Y22066
X39053Y42704
X39211Y45085
X41275Y19209
X35243Y41593
X39529Y58420
X38100Y56991
X24447Y11589
X26829Y24765
X27781Y10636
X32226Y22860
X23654Y41275
X26829Y50165
X20638Y49212
X23654Y45720
X17304Y29369
X23654Y35719
X16034Y30797
X20161Y35243
X16669Y30004
X36989Y14764
X18733Y29369
X23654Y34290
X49371Y62865
X34925Y55404
X52070Y63500
X50959Y63659
X35878Y55562
X50800Y62230
X31750Y48895
X50006Y27622
X34608Y12382
X46672Y32226
X46672Y36195
X43180Y47942
X37783Y11430
X50800Y7937
X52070Y9208
X41116Y49530
X38259Y13335
X40481Y46196
X52070Y10319
X47784Y28575
X47149Y18891
X49371Y21114
X43021Y14129
X45879Y27464
X33973Y39688
X42386Y32702
X5080Y31591
X29845Y44609
X28257Y50165
X45720Y50165
X30321Y46196
X25559Y12382
X25241Y16192
X43974Y8573
X50641Y18891
X51911Y30162
X44609Y47307
X33338Y11430
X32861Y59372
X36195Y15399
X45085Y30321
X36830Y50800
X32226Y45561
X26194Y19368
X33655Y24289
X47149Y8890
X49689Y11430
X27781Y19368
X34608Y24447
X43974Y17463
X38259Y23019
X34290Y27464
X35560Y24765
X32702Y14764
X26511Y6985
X20320Y24765
X29686Y60801
X5239Y61754
X20796Y34608
X23654Y55562
X28734Y54292
X37465Y54292
X33655Y64452
X25400Y27464
X31909Y27464
X36830Y27464
X42386Y26829
X45085Y33655
X35878Y48895
X45085Y45561
X16510Y59372
X37783Y59690
X14605Y49530
X41275Y63500
X35560Y14764
X15716Y46514
X15081Y51117
X5398Y45085
X33496Y49212
M30