G04 EAGLE Gerber RS-274X export*
G75*
%MOMM*%
%FSLAX34Y34*%
%LPD*%
%INTop Paste*%
%IPPOS*%
%AMOC8*
5,1,8,0,0,1.08239X$1,22.5*%
G01*
%ADD10R,0.350000X0.350000*%
%ADD11R,0.850000X0.900000*%
%ADD12R,1.100000X1.000000*%
%ADD13R,0.800000X1.200000*%
%ADD14R,1.000000X1.100000*%
%ADD15R,0.900000X0.850000*%
%ADD16R,0.600000X0.500000*%
%ADD17R,0.400000X0.380000*%
%ADD18R,0.380000X0.400000*%
%ADD19R,1.140000X1.660000*%
%ADD20C,0.200000*%
%ADD21R,0.560000X0.600000*%
%ADD22R,2.100000X1.400000*%
%ADD23R,1.550000X2.400000*%
%ADD24R,0.375000X0.350000*%
%ADD25R,0.350000X0.375000*%
%ADD26R,0.350000X0.590000*%
%ADD27R,0.590000X0.350000*%
%ADD28C,0.070000*%
%ADD29R,1.300000X1.100000*%
%ADD30R,1.200000X0.800000*%

G36*
X475490Y506351D02*
X475490Y506351D01*
X475492Y506350D01*
X475535Y506370D01*
X475579Y506388D01*
X475579Y506390D01*
X475581Y506391D01*
X475614Y506476D01*
X475614Y509524D01*
X475613Y509526D01*
X475614Y509528D01*
X475594Y509571D01*
X475576Y509615D01*
X475574Y509615D01*
X475573Y509617D01*
X475488Y509650D01*
X470408Y509650D01*
X470406Y509649D01*
X470404Y509650D01*
X470361Y509630D01*
X470317Y509612D01*
X470317Y509610D01*
X470315Y509609D01*
X470282Y509524D01*
X470282Y506476D01*
X470283Y506474D01*
X470282Y506472D01*
X470302Y506429D01*
X470320Y506385D01*
X470322Y506385D01*
X470323Y506383D01*
X470408Y506350D01*
X475488Y506350D01*
X475490Y506351D01*
G37*
G36*
X469394Y506351D02*
X469394Y506351D01*
X469396Y506350D01*
X469439Y506370D01*
X469483Y506388D01*
X469483Y506390D01*
X469485Y506391D01*
X469518Y506476D01*
X469518Y509524D01*
X469517Y509526D01*
X469518Y509528D01*
X469498Y509571D01*
X469480Y509615D01*
X469478Y509615D01*
X469477Y509617D01*
X469392Y509650D01*
X464312Y509650D01*
X464310Y509649D01*
X464308Y509650D01*
X464265Y509630D01*
X464221Y509612D01*
X464221Y509610D01*
X464219Y509609D01*
X464186Y509524D01*
X464186Y506476D01*
X464187Y506474D01*
X464186Y506472D01*
X464206Y506429D01*
X464224Y506385D01*
X464226Y506385D01*
X464227Y506383D01*
X464312Y506350D01*
X469392Y506350D01*
X469394Y506351D01*
G37*
G36*
X464902Y511625D02*
X464902Y511625D01*
X464904Y511624D01*
X464947Y511644D01*
X464991Y511662D01*
X464991Y511664D01*
X464993Y511665D01*
X465026Y511750D01*
X465026Y516750D01*
X465025Y516752D01*
X465026Y516754D01*
X465006Y516797D01*
X464988Y516841D01*
X464986Y516841D01*
X464985Y516843D01*
X464900Y516876D01*
X462900Y516876D01*
X462898Y516875D01*
X462896Y516876D01*
X462853Y516856D01*
X462809Y516838D01*
X462809Y516836D01*
X462807Y516835D01*
X462774Y516750D01*
X462774Y511750D01*
X462775Y511748D01*
X462774Y511746D01*
X462794Y511703D01*
X462812Y511659D01*
X462814Y511659D01*
X462815Y511657D01*
X462900Y511624D01*
X464900Y511624D01*
X464902Y511625D01*
G37*
G36*
X468902Y511625D02*
X468902Y511625D01*
X468904Y511624D01*
X468947Y511644D01*
X468991Y511662D01*
X468991Y511664D01*
X468993Y511665D01*
X469026Y511750D01*
X469026Y516750D01*
X469025Y516752D01*
X469026Y516754D01*
X469006Y516797D01*
X468988Y516841D01*
X468986Y516841D01*
X468985Y516843D01*
X468900Y516876D01*
X466900Y516876D01*
X466898Y516875D01*
X466896Y516876D01*
X466853Y516856D01*
X466809Y516838D01*
X466809Y516836D01*
X466807Y516835D01*
X466774Y516750D01*
X466774Y511750D01*
X466775Y511748D01*
X466774Y511746D01*
X466794Y511703D01*
X466812Y511659D01*
X466814Y511659D01*
X466815Y511657D01*
X466900Y511624D01*
X468900Y511624D01*
X468902Y511625D01*
G37*
G36*
X472902Y511625D02*
X472902Y511625D01*
X472904Y511624D01*
X472947Y511644D01*
X472991Y511662D01*
X472991Y511664D01*
X472993Y511665D01*
X473026Y511750D01*
X473026Y516750D01*
X473025Y516752D01*
X473026Y516754D01*
X473006Y516797D01*
X472988Y516841D01*
X472986Y516841D01*
X472985Y516843D01*
X472900Y516876D01*
X470900Y516876D01*
X470898Y516875D01*
X470896Y516876D01*
X470853Y516856D01*
X470809Y516838D01*
X470809Y516836D01*
X470807Y516835D01*
X470774Y516750D01*
X470774Y511750D01*
X470775Y511748D01*
X470774Y511746D01*
X470794Y511703D01*
X470812Y511659D01*
X470814Y511659D01*
X470815Y511657D01*
X470900Y511624D01*
X472900Y511624D01*
X472902Y511625D01*
G37*
G36*
X476902Y511625D02*
X476902Y511625D01*
X476904Y511624D01*
X476947Y511644D01*
X476991Y511662D01*
X476991Y511664D01*
X476993Y511665D01*
X477026Y511750D01*
X477026Y516750D01*
X477025Y516752D01*
X477026Y516754D01*
X477006Y516797D01*
X476988Y516841D01*
X476986Y516841D01*
X476985Y516843D01*
X476900Y516876D01*
X474900Y516876D01*
X474898Y516875D01*
X474896Y516876D01*
X474853Y516856D01*
X474809Y516838D01*
X474809Y516836D01*
X474807Y516835D01*
X474774Y516750D01*
X474774Y511750D01*
X474775Y511748D01*
X474774Y511746D01*
X474794Y511703D01*
X474812Y511659D01*
X474814Y511659D01*
X474815Y511657D01*
X474900Y511624D01*
X476900Y511624D01*
X476902Y511625D01*
G37*
G36*
X476902Y499125D02*
X476902Y499125D01*
X476904Y499124D01*
X476947Y499144D01*
X476991Y499162D01*
X476991Y499164D01*
X476993Y499165D01*
X477026Y499250D01*
X477026Y504250D01*
X477025Y504252D01*
X477026Y504254D01*
X477006Y504297D01*
X476988Y504341D01*
X476986Y504341D01*
X476985Y504343D01*
X476900Y504376D01*
X474900Y504376D01*
X474898Y504375D01*
X474896Y504376D01*
X474853Y504356D01*
X474809Y504338D01*
X474809Y504336D01*
X474807Y504335D01*
X474774Y504250D01*
X474774Y499250D01*
X474775Y499248D01*
X474774Y499246D01*
X474794Y499203D01*
X474812Y499159D01*
X474814Y499159D01*
X474815Y499157D01*
X474900Y499124D01*
X476900Y499124D01*
X476902Y499125D01*
G37*
G36*
X472902Y499125D02*
X472902Y499125D01*
X472904Y499124D01*
X472947Y499144D01*
X472991Y499162D01*
X472991Y499164D01*
X472993Y499165D01*
X473026Y499250D01*
X473026Y504250D01*
X473025Y504252D01*
X473026Y504254D01*
X473006Y504297D01*
X472988Y504341D01*
X472986Y504341D01*
X472985Y504343D01*
X472900Y504376D01*
X470900Y504376D01*
X470898Y504375D01*
X470896Y504376D01*
X470853Y504356D01*
X470809Y504338D01*
X470809Y504336D01*
X470807Y504335D01*
X470774Y504250D01*
X470774Y499250D01*
X470775Y499248D01*
X470774Y499246D01*
X470794Y499203D01*
X470812Y499159D01*
X470814Y499159D01*
X470815Y499157D01*
X470900Y499124D01*
X472900Y499124D01*
X472902Y499125D01*
G37*
G36*
X468902Y499125D02*
X468902Y499125D01*
X468904Y499124D01*
X468947Y499144D01*
X468991Y499162D01*
X468991Y499164D01*
X468993Y499165D01*
X469026Y499250D01*
X469026Y504250D01*
X469025Y504252D01*
X469026Y504254D01*
X469006Y504297D01*
X468988Y504341D01*
X468986Y504341D01*
X468985Y504343D01*
X468900Y504376D01*
X466900Y504376D01*
X466898Y504375D01*
X466896Y504376D01*
X466853Y504356D01*
X466809Y504338D01*
X466809Y504336D01*
X466807Y504335D01*
X466774Y504250D01*
X466774Y499250D01*
X466775Y499248D01*
X466774Y499246D01*
X466794Y499203D01*
X466812Y499159D01*
X466814Y499159D01*
X466815Y499157D01*
X466900Y499124D01*
X468900Y499124D01*
X468902Y499125D01*
G37*
G36*
X464902Y499125D02*
X464902Y499125D01*
X464904Y499124D01*
X464947Y499144D01*
X464991Y499162D01*
X464991Y499164D01*
X464993Y499165D01*
X465026Y499250D01*
X465026Y504250D01*
X465025Y504252D01*
X465026Y504254D01*
X465006Y504297D01*
X464988Y504341D01*
X464986Y504341D01*
X464985Y504343D01*
X464900Y504376D01*
X462900Y504376D01*
X462898Y504375D01*
X462896Y504376D01*
X462853Y504356D01*
X462809Y504338D01*
X462809Y504336D01*
X462807Y504335D01*
X462774Y504250D01*
X462774Y499250D01*
X462775Y499248D01*
X462774Y499246D01*
X462794Y499203D01*
X462812Y499159D01*
X462814Y499159D01*
X462815Y499157D01*
X462900Y499124D01*
X464900Y499124D01*
X464902Y499125D01*
G37*
D10*
X390750Y589650D03*
X384250Y589650D03*
X377750Y589650D03*
X371250Y589650D03*
X371250Y604150D03*
X377750Y604150D03*
X384250Y604150D03*
X390750Y604150D03*
X335650Y587150D03*
X335650Y593650D03*
X335650Y600150D03*
X335650Y606650D03*
X350150Y606650D03*
X350150Y600150D03*
X350150Y593650D03*
X350150Y587150D03*
X441550Y589650D03*
X435050Y589650D03*
X428550Y589650D03*
X422050Y589650D03*
X422050Y604150D03*
X428550Y604150D03*
X435050Y604150D03*
X441550Y604150D03*
D11*
X375200Y558800D03*
X386800Y558800D03*
X286300Y533400D03*
X297900Y533400D03*
D12*
X270900Y622300D03*
X287900Y622300D03*
D11*
X235500Y546100D03*
X247100Y546100D03*
D12*
X410600Y558800D03*
X427600Y558800D03*
X122800Y355600D03*
X105800Y355600D03*
X93100Y228600D03*
X110100Y228600D03*
X67700Y152400D03*
X84700Y152400D03*
X93100Y190500D03*
X110100Y190500D03*
X42300Y355600D03*
X59300Y355600D03*
D13*
X67200Y393700D03*
X85200Y393700D03*
D11*
X375200Y533400D03*
X386800Y533400D03*
D13*
X97900Y266700D03*
X79900Y266700D03*
X97900Y317500D03*
X79900Y317500D03*
D14*
X139700Y156600D03*
X139700Y173600D03*
D12*
X182000Y406400D03*
X199000Y406400D03*
D14*
X469900Y554600D03*
X469900Y537600D03*
D11*
X273600Y596900D03*
X285200Y596900D03*
X413300Y533400D03*
X424900Y533400D03*
X95800Y431800D03*
X107400Y431800D03*
D15*
X88900Y476800D03*
X88900Y488400D03*
X25400Y464100D03*
X25400Y475700D03*
X63500Y463000D03*
X63500Y451400D03*
D16*
X165100Y465400D03*
X165100Y474400D03*
D17*
X393700Y162290D03*
X393700Y167910D03*
D18*
X213090Y165100D03*
X218710Y165100D03*
X479790Y190500D03*
X485410Y190500D03*
X22590Y431800D03*
X28210Y431800D03*
D17*
X304800Y612410D03*
X304800Y606790D03*
X444500Y555990D03*
X444500Y561610D03*
D18*
X390890Y635000D03*
X396510Y635000D03*
D19*
X38100Y635000D03*
D20*
X26950Y643500D02*
X20550Y643500D01*
X20550Y645500D01*
X26950Y645500D01*
X26950Y643500D01*
X26950Y645400D02*
X20550Y645400D01*
X20550Y634000D02*
X26950Y634000D01*
X20550Y634000D02*
X20550Y636000D01*
X26950Y636000D01*
X26950Y634000D01*
X26950Y635900D02*
X20550Y635900D01*
X20550Y624500D02*
X26950Y624500D01*
X20550Y624500D02*
X20550Y626500D01*
X26950Y626500D01*
X26950Y624500D01*
X26950Y626400D02*
X20550Y626400D01*
X49250Y626500D02*
X55650Y626500D01*
X55650Y624500D01*
X49250Y624500D01*
X49250Y626500D01*
X49250Y626400D02*
X55650Y626400D01*
X55650Y636000D02*
X49250Y636000D01*
X55650Y636000D02*
X55650Y634000D01*
X49250Y634000D01*
X49250Y636000D01*
X49250Y635900D02*
X55650Y635900D01*
X55650Y645500D02*
X49250Y645500D01*
X55650Y645500D02*
X55650Y643500D01*
X49250Y643500D01*
X49250Y645500D01*
X49250Y645400D02*
X55650Y645400D01*
D11*
X324400Y533400D03*
X336000Y533400D03*
D15*
X88900Y95800D03*
X88900Y107400D03*
X292100Y565700D03*
X292100Y577300D03*
D11*
X489500Y546100D03*
X501100Y546100D03*
X184700Y127000D03*
X196300Y127000D03*
D15*
X431800Y629200D03*
X431800Y640800D03*
X190500Y107400D03*
X190500Y95800D03*
D11*
X413300Y165100D03*
X424900Y165100D03*
D15*
X304800Y183600D03*
X304800Y172000D03*
D21*
X245650Y177800D03*
X236950Y177800D03*
D11*
X324400Y558800D03*
X336000Y558800D03*
X121200Y495300D03*
X132800Y495300D03*
X324400Y635000D03*
X336000Y635000D03*
D12*
X207400Y520700D03*
X224400Y520700D03*
D21*
X351250Y508000D03*
X359950Y508000D03*
X385350Y508000D03*
X376650Y508000D03*
D22*
X135100Y594000D03*
X195100Y594000D03*
X135100Y549000D03*
X195100Y549000D03*
X33500Y594000D03*
X93500Y594000D03*
X33500Y549000D03*
X93500Y549000D03*
D23*
X241300Y588600D03*
X241300Y630600D03*
D24*
X500375Y629800D03*
X500375Y624800D03*
X500375Y619800D03*
X500375Y614800D03*
D25*
X505500Y614675D03*
X510500Y614675D03*
D24*
X515625Y614800D03*
X515625Y619800D03*
X515625Y624800D03*
X515625Y629800D03*
D25*
X510500Y629925D03*
X505500Y629925D03*
D24*
X144775Y223400D03*
X144775Y218400D03*
X144775Y213400D03*
X144775Y208400D03*
D25*
X149900Y208275D03*
X154900Y208275D03*
D24*
X160025Y208400D03*
X160025Y213400D03*
X160025Y218400D03*
X160025Y223400D03*
D25*
X154900Y223525D03*
X149900Y223525D03*
D26*
X370600Y138650D03*
X365600Y138650D03*
X360600Y138650D03*
X355600Y138650D03*
X350600Y138650D03*
X345600Y138650D03*
X340600Y138650D03*
D27*
X336450Y127000D03*
D26*
X340600Y115350D03*
X345600Y115350D03*
X350600Y115350D03*
X355600Y115350D03*
X360600Y115350D03*
X365600Y115350D03*
X370600Y115350D03*
D27*
X374750Y127000D03*
D26*
X429500Y77250D03*
X434500Y77250D03*
X439500Y77250D03*
X444500Y77250D03*
X449500Y77250D03*
X454500Y77250D03*
X459500Y77250D03*
D27*
X463650Y88900D03*
D26*
X459500Y100550D03*
X454500Y100550D03*
X449500Y100550D03*
X444500Y100550D03*
X439500Y100550D03*
X434500Y100550D03*
X429500Y100550D03*
D27*
X425350Y88900D03*
D26*
X281700Y138650D03*
X276700Y138650D03*
X271700Y138650D03*
X266700Y138650D03*
X261700Y138650D03*
X256700Y138650D03*
X251700Y138650D03*
D27*
X247550Y127000D03*
D26*
X251700Y115350D03*
X256700Y115350D03*
X261700Y115350D03*
X266700Y115350D03*
X271700Y115350D03*
X276700Y115350D03*
X281700Y115350D03*
D27*
X285850Y127000D03*
D28*
X243750Y254050D02*
X243750Y268950D01*
X243750Y254050D02*
X241650Y254050D01*
X241650Y268950D01*
X243750Y268950D01*
X243750Y254715D02*
X241650Y254715D01*
X241650Y255380D02*
X243750Y255380D01*
X243750Y256045D02*
X241650Y256045D01*
X241650Y256710D02*
X243750Y256710D01*
X243750Y257375D02*
X241650Y257375D01*
X241650Y258040D02*
X243750Y258040D01*
X243750Y258705D02*
X241650Y258705D01*
X241650Y259370D02*
X243750Y259370D01*
X243750Y260035D02*
X241650Y260035D01*
X241650Y260700D02*
X243750Y260700D01*
X243750Y261365D02*
X241650Y261365D01*
X241650Y262030D02*
X243750Y262030D01*
X243750Y262695D02*
X241650Y262695D01*
X241650Y263360D02*
X243750Y263360D01*
X243750Y264025D02*
X241650Y264025D01*
X241650Y264690D02*
X243750Y264690D01*
X243750Y265355D02*
X241650Y265355D01*
X241650Y266020D02*
X243750Y266020D01*
X243750Y266685D02*
X241650Y266685D01*
X241650Y267350D02*
X243750Y267350D01*
X243750Y268015D02*
X241650Y268015D01*
X241650Y268680D02*
X243750Y268680D01*
X248750Y268950D02*
X248750Y254050D01*
X246650Y254050D01*
X246650Y268950D01*
X248750Y268950D01*
X248750Y254715D02*
X246650Y254715D01*
X246650Y255380D02*
X248750Y255380D01*
X248750Y256045D02*
X246650Y256045D01*
X246650Y256710D02*
X248750Y256710D01*
X248750Y257375D02*
X246650Y257375D01*
X246650Y258040D02*
X248750Y258040D01*
X248750Y258705D02*
X246650Y258705D01*
X246650Y259370D02*
X248750Y259370D01*
X248750Y260035D02*
X246650Y260035D01*
X246650Y260700D02*
X248750Y260700D01*
X248750Y261365D02*
X246650Y261365D01*
X246650Y262030D02*
X248750Y262030D01*
X248750Y262695D02*
X246650Y262695D01*
X246650Y263360D02*
X248750Y263360D01*
X248750Y264025D02*
X246650Y264025D01*
X246650Y264690D02*
X248750Y264690D01*
X248750Y265355D02*
X246650Y265355D01*
X246650Y266020D02*
X248750Y266020D01*
X248750Y266685D02*
X246650Y266685D01*
X246650Y267350D02*
X248750Y267350D01*
X248750Y268015D02*
X246650Y268015D01*
X246650Y268680D02*
X248750Y268680D01*
X253750Y268950D02*
X253750Y254050D01*
X251650Y254050D01*
X251650Y268950D01*
X253750Y268950D01*
X253750Y254715D02*
X251650Y254715D01*
X251650Y255380D02*
X253750Y255380D01*
X253750Y256045D02*
X251650Y256045D01*
X251650Y256710D02*
X253750Y256710D01*
X253750Y257375D02*
X251650Y257375D01*
X251650Y258040D02*
X253750Y258040D01*
X253750Y258705D02*
X251650Y258705D01*
X251650Y259370D02*
X253750Y259370D01*
X253750Y260035D02*
X251650Y260035D01*
X251650Y260700D02*
X253750Y260700D01*
X253750Y261365D02*
X251650Y261365D01*
X251650Y262030D02*
X253750Y262030D01*
X253750Y262695D02*
X251650Y262695D01*
X251650Y263360D02*
X253750Y263360D01*
X253750Y264025D02*
X251650Y264025D01*
X251650Y264690D02*
X253750Y264690D01*
X253750Y265355D02*
X251650Y265355D01*
X251650Y266020D02*
X253750Y266020D01*
X253750Y266685D02*
X251650Y266685D01*
X251650Y267350D02*
X253750Y267350D01*
X253750Y268015D02*
X251650Y268015D01*
X251650Y268680D02*
X253750Y268680D01*
X258750Y268950D02*
X258750Y254050D01*
X256650Y254050D01*
X256650Y268950D01*
X258750Y268950D01*
X258750Y254715D02*
X256650Y254715D01*
X256650Y255380D02*
X258750Y255380D01*
X258750Y256045D02*
X256650Y256045D01*
X256650Y256710D02*
X258750Y256710D01*
X258750Y257375D02*
X256650Y257375D01*
X256650Y258040D02*
X258750Y258040D01*
X258750Y258705D02*
X256650Y258705D01*
X256650Y259370D02*
X258750Y259370D01*
X258750Y260035D02*
X256650Y260035D01*
X256650Y260700D02*
X258750Y260700D01*
X258750Y261365D02*
X256650Y261365D01*
X256650Y262030D02*
X258750Y262030D01*
X258750Y262695D02*
X256650Y262695D01*
X256650Y263360D02*
X258750Y263360D01*
X258750Y264025D02*
X256650Y264025D01*
X256650Y264690D02*
X258750Y264690D01*
X258750Y265355D02*
X256650Y265355D01*
X256650Y266020D02*
X258750Y266020D01*
X258750Y266685D02*
X256650Y266685D01*
X256650Y267350D02*
X258750Y267350D01*
X258750Y268015D02*
X256650Y268015D01*
X256650Y268680D02*
X258750Y268680D01*
X263750Y268950D02*
X263750Y254050D01*
X261650Y254050D01*
X261650Y268950D01*
X263750Y268950D01*
X263750Y254715D02*
X261650Y254715D01*
X261650Y255380D02*
X263750Y255380D01*
X263750Y256045D02*
X261650Y256045D01*
X261650Y256710D02*
X263750Y256710D01*
X263750Y257375D02*
X261650Y257375D01*
X261650Y258040D02*
X263750Y258040D01*
X263750Y258705D02*
X261650Y258705D01*
X261650Y259370D02*
X263750Y259370D01*
X263750Y260035D02*
X261650Y260035D01*
X261650Y260700D02*
X263750Y260700D01*
X263750Y261365D02*
X261650Y261365D01*
X261650Y262030D02*
X263750Y262030D01*
X263750Y262695D02*
X261650Y262695D01*
X261650Y263360D02*
X263750Y263360D01*
X263750Y264025D02*
X261650Y264025D01*
X261650Y264690D02*
X263750Y264690D01*
X263750Y265355D02*
X261650Y265355D01*
X261650Y266020D02*
X263750Y266020D01*
X263750Y266685D02*
X261650Y266685D01*
X261650Y267350D02*
X263750Y267350D01*
X263750Y268015D02*
X261650Y268015D01*
X261650Y268680D02*
X263750Y268680D01*
X268750Y268950D02*
X268750Y254050D01*
X266650Y254050D01*
X266650Y268950D01*
X268750Y268950D01*
X268750Y254715D02*
X266650Y254715D01*
X266650Y255380D02*
X268750Y255380D01*
X268750Y256045D02*
X266650Y256045D01*
X266650Y256710D02*
X268750Y256710D01*
X268750Y257375D02*
X266650Y257375D01*
X266650Y258040D02*
X268750Y258040D01*
X268750Y258705D02*
X266650Y258705D01*
X266650Y259370D02*
X268750Y259370D01*
X268750Y260035D02*
X266650Y260035D01*
X266650Y260700D02*
X268750Y260700D01*
X268750Y261365D02*
X266650Y261365D01*
X266650Y262030D02*
X268750Y262030D01*
X268750Y262695D02*
X266650Y262695D01*
X266650Y263360D02*
X268750Y263360D01*
X268750Y264025D02*
X266650Y264025D01*
X266650Y264690D02*
X268750Y264690D01*
X268750Y265355D02*
X266650Y265355D01*
X266650Y266020D02*
X268750Y266020D01*
X268750Y266685D02*
X266650Y266685D01*
X266650Y267350D02*
X268750Y267350D01*
X268750Y268015D02*
X266650Y268015D01*
X266650Y268680D02*
X268750Y268680D01*
X273750Y268950D02*
X273750Y254050D01*
X271650Y254050D01*
X271650Y268950D01*
X273750Y268950D01*
X273750Y254715D02*
X271650Y254715D01*
X271650Y255380D02*
X273750Y255380D01*
X273750Y256045D02*
X271650Y256045D01*
X271650Y256710D02*
X273750Y256710D01*
X273750Y257375D02*
X271650Y257375D01*
X271650Y258040D02*
X273750Y258040D01*
X273750Y258705D02*
X271650Y258705D01*
X271650Y259370D02*
X273750Y259370D01*
X273750Y260035D02*
X271650Y260035D01*
X271650Y260700D02*
X273750Y260700D01*
X273750Y261365D02*
X271650Y261365D01*
X271650Y262030D02*
X273750Y262030D01*
X273750Y262695D02*
X271650Y262695D01*
X271650Y263360D02*
X273750Y263360D01*
X273750Y264025D02*
X271650Y264025D01*
X271650Y264690D02*
X273750Y264690D01*
X273750Y265355D02*
X271650Y265355D01*
X271650Y266020D02*
X273750Y266020D01*
X273750Y266685D02*
X271650Y266685D01*
X271650Y267350D02*
X273750Y267350D01*
X273750Y268015D02*
X271650Y268015D01*
X271650Y268680D02*
X273750Y268680D01*
X278750Y268950D02*
X278750Y254050D01*
X276650Y254050D01*
X276650Y268950D01*
X278750Y268950D01*
X278750Y254715D02*
X276650Y254715D01*
X276650Y255380D02*
X278750Y255380D01*
X278750Y256045D02*
X276650Y256045D01*
X276650Y256710D02*
X278750Y256710D01*
X278750Y257375D02*
X276650Y257375D01*
X276650Y258040D02*
X278750Y258040D01*
X278750Y258705D02*
X276650Y258705D01*
X276650Y259370D02*
X278750Y259370D01*
X278750Y260035D02*
X276650Y260035D01*
X276650Y260700D02*
X278750Y260700D01*
X278750Y261365D02*
X276650Y261365D01*
X276650Y262030D02*
X278750Y262030D01*
X278750Y262695D02*
X276650Y262695D01*
X276650Y263360D02*
X278750Y263360D01*
X278750Y264025D02*
X276650Y264025D01*
X276650Y264690D02*
X278750Y264690D01*
X278750Y265355D02*
X276650Y265355D01*
X276650Y266020D02*
X278750Y266020D01*
X278750Y266685D02*
X276650Y266685D01*
X276650Y267350D02*
X278750Y267350D01*
X278750Y268015D02*
X276650Y268015D01*
X276650Y268680D02*
X278750Y268680D01*
X283750Y268950D02*
X283750Y254050D01*
X281650Y254050D01*
X281650Y268950D01*
X283750Y268950D01*
X283750Y254715D02*
X281650Y254715D01*
X281650Y255380D02*
X283750Y255380D01*
X283750Y256045D02*
X281650Y256045D01*
X281650Y256710D02*
X283750Y256710D01*
X283750Y257375D02*
X281650Y257375D01*
X281650Y258040D02*
X283750Y258040D01*
X283750Y258705D02*
X281650Y258705D01*
X281650Y259370D02*
X283750Y259370D01*
X283750Y260035D02*
X281650Y260035D01*
X281650Y260700D02*
X283750Y260700D01*
X283750Y261365D02*
X281650Y261365D01*
X281650Y262030D02*
X283750Y262030D01*
X283750Y262695D02*
X281650Y262695D01*
X281650Y263360D02*
X283750Y263360D01*
X283750Y264025D02*
X281650Y264025D01*
X281650Y264690D02*
X283750Y264690D01*
X283750Y265355D02*
X281650Y265355D01*
X281650Y266020D02*
X283750Y266020D01*
X283750Y266685D02*
X281650Y266685D01*
X281650Y267350D02*
X283750Y267350D01*
X283750Y268015D02*
X281650Y268015D01*
X281650Y268680D02*
X283750Y268680D01*
X288750Y268950D02*
X288750Y254050D01*
X286650Y254050D01*
X286650Y268950D01*
X288750Y268950D01*
X288750Y254715D02*
X286650Y254715D01*
X286650Y255380D02*
X288750Y255380D01*
X288750Y256045D02*
X286650Y256045D01*
X286650Y256710D02*
X288750Y256710D01*
X288750Y257375D02*
X286650Y257375D01*
X286650Y258040D02*
X288750Y258040D01*
X288750Y258705D02*
X286650Y258705D01*
X286650Y259370D02*
X288750Y259370D01*
X288750Y260035D02*
X286650Y260035D01*
X286650Y260700D02*
X288750Y260700D01*
X288750Y261365D02*
X286650Y261365D01*
X286650Y262030D02*
X288750Y262030D01*
X288750Y262695D02*
X286650Y262695D01*
X286650Y263360D02*
X288750Y263360D01*
X288750Y264025D02*
X286650Y264025D01*
X286650Y264690D02*
X288750Y264690D01*
X288750Y265355D02*
X286650Y265355D01*
X286650Y266020D02*
X288750Y266020D01*
X288750Y266685D02*
X286650Y266685D01*
X286650Y267350D02*
X288750Y267350D01*
X288750Y268015D02*
X286650Y268015D01*
X286650Y268680D02*
X288750Y268680D01*
X293750Y268950D02*
X293750Y254050D01*
X291650Y254050D01*
X291650Y268950D01*
X293750Y268950D01*
X293750Y254715D02*
X291650Y254715D01*
X291650Y255380D02*
X293750Y255380D01*
X293750Y256045D02*
X291650Y256045D01*
X291650Y256710D02*
X293750Y256710D01*
X293750Y257375D02*
X291650Y257375D01*
X291650Y258040D02*
X293750Y258040D01*
X293750Y258705D02*
X291650Y258705D01*
X291650Y259370D02*
X293750Y259370D01*
X293750Y260035D02*
X291650Y260035D01*
X291650Y260700D02*
X293750Y260700D01*
X293750Y261365D02*
X291650Y261365D01*
X291650Y262030D02*
X293750Y262030D01*
X293750Y262695D02*
X291650Y262695D01*
X291650Y263360D02*
X293750Y263360D01*
X293750Y264025D02*
X291650Y264025D01*
X291650Y264690D02*
X293750Y264690D01*
X293750Y265355D02*
X291650Y265355D01*
X291650Y266020D02*
X293750Y266020D01*
X293750Y266685D02*
X291650Y266685D01*
X291650Y267350D02*
X293750Y267350D01*
X293750Y268015D02*
X291650Y268015D01*
X291650Y268680D02*
X293750Y268680D01*
X298750Y268950D02*
X298750Y254050D01*
X296650Y254050D01*
X296650Y268950D01*
X298750Y268950D01*
X298750Y254715D02*
X296650Y254715D01*
X296650Y255380D02*
X298750Y255380D01*
X298750Y256045D02*
X296650Y256045D01*
X296650Y256710D02*
X298750Y256710D01*
X298750Y257375D02*
X296650Y257375D01*
X296650Y258040D02*
X298750Y258040D01*
X298750Y258705D02*
X296650Y258705D01*
X296650Y259370D02*
X298750Y259370D01*
X298750Y260035D02*
X296650Y260035D01*
X296650Y260700D02*
X298750Y260700D01*
X298750Y261365D02*
X296650Y261365D01*
X296650Y262030D02*
X298750Y262030D01*
X298750Y262695D02*
X296650Y262695D01*
X296650Y263360D02*
X298750Y263360D01*
X298750Y264025D02*
X296650Y264025D01*
X296650Y264690D02*
X298750Y264690D01*
X298750Y265355D02*
X296650Y265355D01*
X296650Y266020D02*
X298750Y266020D01*
X298750Y266685D02*
X296650Y266685D01*
X296650Y267350D02*
X298750Y267350D01*
X298750Y268015D02*
X296650Y268015D01*
X296650Y268680D02*
X298750Y268680D01*
X303750Y268950D02*
X303750Y254050D01*
X301650Y254050D01*
X301650Y268950D01*
X303750Y268950D01*
X303750Y254715D02*
X301650Y254715D01*
X301650Y255380D02*
X303750Y255380D01*
X303750Y256045D02*
X301650Y256045D01*
X301650Y256710D02*
X303750Y256710D01*
X303750Y257375D02*
X301650Y257375D01*
X301650Y258040D02*
X303750Y258040D01*
X303750Y258705D02*
X301650Y258705D01*
X301650Y259370D02*
X303750Y259370D01*
X303750Y260035D02*
X301650Y260035D01*
X301650Y260700D02*
X303750Y260700D01*
X303750Y261365D02*
X301650Y261365D01*
X301650Y262030D02*
X303750Y262030D01*
X303750Y262695D02*
X301650Y262695D01*
X301650Y263360D02*
X303750Y263360D01*
X303750Y264025D02*
X301650Y264025D01*
X301650Y264690D02*
X303750Y264690D01*
X303750Y265355D02*
X301650Y265355D01*
X301650Y266020D02*
X303750Y266020D01*
X303750Y266685D02*
X301650Y266685D01*
X301650Y267350D02*
X303750Y267350D01*
X303750Y268015D02*
X301650Y268015D01*
X301650Y268680D02*
X303750Y268680D01*
X308750Y268950D02*
X308750Y254050D01*
X306650Y254050D01*
X306650Y268950D01*
X308750Y268950D01*
X308750Y254715D02*
X306650Y254715D01*
X306650Y255380D02*
X308750Y255380D01*
X308750Y256045D02*
X306650Y256045D01*
X306650Y256710D02*
X308750Y256710D01*
X308750Y257375D02*
X306650Y257375D01*
X306650Y258040D02*
X308750Y258040D01*
X308750Y258705D02*
X306650Y258705D01*
X306650Y259370D02*
X308750Y259370D01*
X308750Y260035D02*
X306650Y260035D01*
X306650Y260700D02*
X308750Y260700D01*
X308750Y261365D02*
X306650Y261365D01*
X306650Y262030D02*
X308750Y262030D01*
X308750Y262695D02*
X306650Y262695D01*
X306650Y263360D02*
X308750Y263360D01*
X308750Y264025D02*
X306650Y264025D01*
X306650Y264690D02*
X308750Y264690D01*
X308750Y265355D02*
X306650Y265355D01*
X306650Y266020D02*
X308750Y266020D01*
X308750Y266685D02*
X306650Y266685D01*
X306650Y267350D02*
X308750Y267350D01*
X308750Y268015D02*
X306650Y268015D01*
X306650Y268680D02*
X308750Y268680D01*
X313750Y268950D02*
X313750Y254050D01*
X311650Y254050D01*
X311650Y268950D01*
X313750Y268950D01*
X313750Y254715D02*
X311650Y254715D01*
X311650Y255380D02*
X313750Y255380D01*
X313750Y256045D02*
X311650Y256045D01*
X311650Y256710D02*
X313750Y256710D01*
X313750Y257375D02*
X311650Y257375D01*
X311650Y258040D02*
X313750Y258040D01*
X313750Y258705D02*
X311650Y258705D01*
X311650Y259370D02*
X313750Y259370D01*
X313750Y260035D02*
X311650Y260035D01*
X311650Y260700D02*
X313750Y260700D01*
X313750Y261365D02*
X311650Y261365D01*
X311650Y262030D02*
X313750Y262030D01*
X313750Y262695D02*
X311650Y262695D01*
X311650Y263360D02*
X313750Y263360D01*
X313750Y264025D02*
X311650Y264025D01*
X311650Y264690D02*
X313750Y264690D01*
X313750Y265355D02*
X311650Y265355D01*
X311650Y266020D02*
X313750Y266020D01*
X313750Y266685D02*
X311650Y266685D01*
X311650Y267350D02*
X313750Y267350D01*
X313750Y268015D02*
X311650Y268015D01*
X311650Y268680D02*
X313750Y268680D01*
X318750Y268950D02*
X318750Y254050D01*
X316650Y254050D01*
X316650Y268950D01*
X318750Y268950D01*
X318750Y254715D02*
X316650Y254715D01*
X316650Y255380D02*
X318750Y255380D01*
X318750Y256045D02*
X316650Y256045D01*
X316650Y256710D02*
X318750Y256710D01*
X318750Y257375D02*
X316650Y257375D01*
X316650Y258040D02*
X318750Y258040D01*
X318750Y258705D02*
X316650Y258705D01*
X316650Y259370D02*
X318750Y259370D01*
X318750Y260035D02*
X316650Y260035D01*
X316650Y260700D02*
X318750Y260700D01*
X318750Y261365D02*
X316650Y261365D01*
X316650Y262030D02*
X318750Y262030D01*
X318750Y262695D02*
X316650Y262695D01*
X316650Y263360D02*
X318750Y263360D01*
X318750Y264025D02*
X316650Y264025D01*
X316650Y264690D02*
X318750Y264690D01*
X318750Y265355D02*
X316650Y265355D01*
X316650Y266020D02*
X318750Y266020D01*
X318750Y266685D02*
X316650Y266685D01*
X316650Y267350D02*
X318750Y267350D01*
X318750Y268015D02*
X316650Y268015D01*
X316650Y268680D02*
X318750Y268680D01*
X323750Y268950D02*
X323750Y254050D01*
X321650Y254050D01*
X321650Y268950D01*
X323750Y268950D01*
X323750Y254715D02*
X321650Y254715D01*
X321650Y255380D02*
X323750Y255380D01*
X323750Y256045D02*
X321650Y256045D01*
X321650Y256710D02*
X323750Y256710D01*
X323750Y257375D02*
X321650Y257375D01*
X321650Y258040D02*
X323750Y258040D01*
X323750Y258705D02*
X321650Y258705D01*
X321650Y259370D02*
X323750Y259370D01*
X323750Y260035D02*
X321650Y260035D01*
X321650Y260700D02*
X323750Y260700D01*
X323750Y261365D02*
X321650Y261365D01*
X321650Y262030D02*
X323750Y262030D01*
X323750Y262695D02*
X321650Y262695D01*
X321650Y263360D02*
X323750Y263360D01*
X323750Y264025D02*
X321650Y264025D01*
X321650Y264690D02*
X323750Y264690D01*
X323750Y265355D02*
X321650Y265355D01*
X321650Y266020D02*
X323750Y266020D01*
X323750Y266685D02*
X321650Y266685D01*
X321650Y267350D02*
X323750Y267350D01*
X323750Y268015D02*
X321650Y268015D01*
X321650Y268680D02*
X323750Y268680D01*
X328750Y268950D02*
X328750Y254050D01*
X326650Y254050D01*
X326650Y268950D01*
X328750Y268950D01*
X328750Y254715D02*
X326650Y254715D01*
X326650Y255380D02*
X328750Y255380D01*
X328750Y256045D02*
X326650Y256045D01*
X326650Y256710D02*
X328750Y256710D01*
X328750Y257375D02*
X326650Y257375D01*
X326650Y258040D02*
X328750Y258040D01*
X328750Y258705D02*
X326650Y258705D01*
X326650Y259370D02*
X328750Y259370D01*
X328750Y260035D02*
X326650Y260035D01*
X326650Y260700D02*
X328750Y260700D01*
X328750Y261365D02*
X326650Y261365D01*
X326650Y262030D02*
X328750Y262030D01*
X328750Y262695D02*
X326650Y262695D01*
X326650Y263360D02*
X328750Y263360D01*
X328750Y264025D02*
X326650Y264025D01*
X326650Y264690D02*
X328750Y264690D01*
X328750Y265355D02*
X326650Y265355D01*
X326650Y266020D02*
X328750Y266020D01*
X328750Y266685D02*
X326650Y266685D01*
X326650Y267350D02*
X328750Y267350D01*
X328750Y268015D02*
X326650Y268015D01*
X326650Y268680D02*
X328750Y268680D01*
X333750Y268950D02*
X333750Y254050D01*
X331650Y254050D01*
X331650Y268950D01*
X333750Y268950D01*
X333750Y254715D02*
X331650Y254715D01*
X331650Y255380D02*
X333750Y255380D01*
X333750Y256045D02*
X331650Y256045D01*
X331650Y256710D02*
X333750Y256710D01*
X333750Y257375D02*
X331650Y257375D01*
X331650Y258040D02*
X333750Y258040D01*
X333750Y258705D02*
X331650Y258705D01*
X331650Y259370D02*
X333750Y259370D01*
X333750Y260035D02*
X331650Y260035D01*
X331650Y260700D02*
X333750Y260700D01*
X333750Y261365D02*
X331650Y261365D01*
X331650Y262030D02*
X333750Y262030D01*
X333750Y262695D02*
X331650Y262695D01*
X331650Y263360D02*
X333750Y263360D01*
X333750Y264025D02*
X331650Y264025D01*
X331650Y264690D02*
X333750Y264690D01*
X333750Y265355D02*
X331650Y265355D01*
X331650Y266020D02*
X333750Y266020D01*
X333750Y266685D02*
X331650Y266685D01*
X331650Y267350D02*
X333750Y267350D01*
X333750Y268015D02*
X331650Y268015D01*
X331650Y268680D02*
X333750Y268680D01*
X338750Y268950D02*
X338750Y254050D01*
X336650Y254050D01*
X336650Y268950D01*
X338750Y268950D01*
X338750Y254715D02*
X336650Y254715D01*
X336650Y255380D02*
X338750Y255380D01*
X338750Y256045D02*
X336650Y256045D01*
X336650Y256710D02*
X338750Y256710D01*
X338750Y257375D02*
X336650Y257375D01*
X336650Y258040D02*
X338750Y258040D01*
X338750Y258705D02*
X336650Y258705D01*
X336650Y259370D02*
X338750Y259370D01*
X338750Y260035D02*
X336650Y260035D01*
X336650Y260700D02*
X338750Y260700D01*
X338750Y261365D02*
X336650Y261365D01*
X336650Y262030D02*
X338750Y262030D01*
X338750Y262695D02*
X336650Y262695D01*
X336650Y263360D02*
X338750Y263360D01*
X338750Y264025D02*
X336650Y264025D01*
X336650Y264690D02*
X338750Y264690D01*
X338750Y265355D02*
X336650Y265355D01*
X336650Y266020D02*
X338750Y266020D01*
X338750Y266685D02*
X336650Y266685D01*
X336650Y267350D02*
X338750Y267350D01*
X338750Y268015D02*
X336650Y268015D01*
X336650Y268680D02*
X338750Y268680D01*
X343750Y268950D02*
X343750Y254050D01*
X341650Y254050D01*
X341650Y268950D01*
X343750Y268950D01*
X343750Y254715D02*
X341650Y254715D01*
X341650Y255380D02*
X343750Y255380D01*
X343750Y256045D02*
X341650Y256045D01*
X341650Y256710D02*
X343750Y256710D01*
X343750Y257375D02*
X341650Y257375D01*
X341650Y258040D02*
X343750Y258040D01*
X343750Y258705D02*
X341650Y258705D01*
X341650Y259370D02*
X343750Y259370D01*
X343750Y260035D02*
X341650Y260035D01*
X341650Y260700D02*
X343750Y260700D01*
X343750Y261365D02*
X341650Y261365D01*
X341650Y262030D02*
X343750Y262030D01*
X343750Y262695D02*
X341650Y262695D01*
X341650Y263360D02*
X343750Y263360D01*
X343750Y264025D02*
X341650Y264025D01*
X341650Y264690D02*
X343750Y264690D01*
X343750Y265355D02*
X341650Y265355D01*
X341650Y266020D02*
X343750Y266020D01*
X343750Y266685D02*
X341650Y266685D01*
X341650Y267350D02*
X343750Y267350D01*
X343750Y268015D02*
X341650Y268015D01*
X341650Y268680D02*
X343750Y268680D01*
X348750Y268950D02*
X348750Y254050D01*
X346650Y254050D01*
X346650Y268950D01*
X348750Y268950D01*
X348750Y254715D02*
X346650Y254715D01*
X346650Y255380D02*
X348750Y255380D01*
X348750Y256045D02*
X346650Y256045D01*
X346650Y256710D02*
X348750Y256710D01*
X348750Y257375D02*
X346650Y257375D01*
X346650Y258040D02*
X348750Y258040D01*
X348750Y258705D02*
X346650Y258705D01*
X346650Y259370D02*
X348750Y259370D01*
X348750Y260035D02*
X346650Y260035D01*
X346650Y260700D02*
X348750Y260700D01*
X348750Y261365D02*
X346650Y261365D01*
X346650Y262030D02*
X348750Y262030D01*
X348750Y262695D02*
X346650Y262695D01*
X346650Y263360D02*
X348750Y263360D01*
X348750Y264025D02*
X346650Y264025D01*
X346650Y264690D02*
X348750Y264690D01*
X348750Y265355D02*
X346650Y265355D01*
X346650Y266020D02*
X348750Y266020D01*
X348750Y266685D02*
X346650Y266685D01*
X346650Y267350D02*
X348750Y267350D01*
X348750Y268015D02*
X346650Y268015D01*
X346650Y268680D02*
X348750Y268680D01*
X353750Y268950D02*
X353750Y254050D01*
X351650Y254050D01*
X351650Y268950D01*
X353750Y268950D01*
X353750Y254715D02*
X351650Y254715D01*
X351650Y255380D02*
X353750Y255380D01*
X353750Y256045D02*
X351650Y256045D01*
X351650Y256710D02*
X353750Y256710D01*
X353750Y257375D02*
X351650Y257375D01*
X351650Y258040D02*
X353750Y258040D01*
X353750Y258705D02*
X351650Y258705D01*
X351650Y259370D02*
X353750Y259370D01*
X353750Y260035D02*
X351650Y260035D01*
X351650Y260700D02*
X353750Y260700D01*
X353750Y261365D02*
X351650Y261365D01*
X351650Y262030D02*
X353750Y262030D01*
X353750Y262695D02*
X351650Y262695D01*
X351650Y263360D02*
X353750Y263360D01*
X353750Y264025D02*
X351650Y264025D01*
X351650Y264690D02*
X353750Y264690D01*
X353750Y265355D02*
X351650Y265355D01*
X351650Y266020D02*
X353750Y266020D01*
X353750Y266685D02*
X351650Y266685D01*
X351650Y267350D02*
X353750Y267350D01*
X353750Y268015D02*
X351650Y268015D01*
X351650Y268680D02*
X353750Y268680D01*
X358750Y268950D02*
X358750Y254050D01*
X356650Y254050D01*
X356650Y268950D01*
X358750Y268950D01*
X358750Y254715D02*
X356650Y254715D01*
X356650Y255380D02*
X358750Y255380D01*
X358750Y256045D02*
X356650Y256045D01*
X356650Y256710D02*
X358750Y256710D01*
X358750Y257375D02*
X356650Y257375D01*
X356650Y258040D02*
X358750Y258040D01*
X358750Y258705D02*
X356650Y258705D01*
X356650Y259370D02*
X358750Y259370D01*
X358750Y260035D02*
X356650Y260035D01*
X356650Y260700D02*
X358750Y260700D01*
X358750Y261365D02*
X356650Y261365D01*
X356650Y262030D02*
X358750Y262030D01*
X358750Y262695D02*
X356650Y262695D01*
X356650Y263360D02*
X358750Y263360D01*
X358750Y264025D02*
X356650Y264025D01*
X356650Y264690D02*
X358750Y264690D01*
X358750Y265355D02*
X356650Y265355D01*
X356650Y266020D02*
X358750Y266020D01*
X358750Y266685D02*
X356650Y266685D01*
X356650Y267350D02*
X358750Y267350D01*
X358750Y268015D02*
X356650Y268015D01*
X356650Y268680D02*
X358750Y268680D01*
X363750Y268950D02*
X363750Y254050D01*
X361650Y254050D01*
X361650Y268950D01*
X363750Y268950D01*
X363750Y254715D02*
X361650Y254715D01*
X361650Y255380D02*
X363750Y255380D01*
X363750Y256045D02*
X361650Y256045D01*
X361650Y256710D02*
X363750Y256710D01*
X363750Y257375D02*
X361650Y257375D01*
X361650Y258040D02*
X363750Y258040D01*
X363750Y258705D02*
X361650Y258705D01*
X361650Y259370D02*
X363750Y259370D01*
X363750Y260035D02*
X361650Y260035D01*
X361650Y260700D02*
X363750Y260700D01*
X363750Y261365D02*
X361650Y261365D01*
X361650Y262030D02*
X363750Y262030D01*
X363750Y262695D02*
X361650Y262695D01*
X361650Y263360D02*
X363750Y263360D01*
X363750Y264025D02*
X361650Y264025D01*
X361650Y264690D02*
X363750Y264690D01*
X363750Y265355D02*
X361650Y265355D01*
X361650Y266020D02*
X363750Y266020D01*
X363750Y266685D02*
X361650Y266685D01*
X361650Y267350D02*
X363750Y267350D01*
X363750Y268015D02*
X361650Y268015D01*
X361650Y268680D02*
X363750Y268680D01*
X368750Y268950D02*
X368750Y254050D01*
X366650Y254050D01*
X366650Y268950D01*
X368750Y268950D01*
X368750Y254715D02*
X366650Y254715D01*
X366650Y255380D02*
X368750Y255380D01*
X368750Y256045D02*
X366650Y256045D01*
X366650Y256710D02*
X368750Y256710D01*
X368750Y257375D02*
X366650Y257375D01*
X366650Y258040D02*
X368750Y258040D01*
X368750Y258705D02*
X366650Y258705D01*
X366650Y259370D02*
X368750Y259370D01*
X368750Y260035D02*
X366650Y260035D01*
X366650Y260700D02*
X368750Y260700D01*
X368750Y261365D02*
X366650Y261365D01*
X366650Y262030D02*
X368750Y262030D01*
X368750Y262695D02*
X366650Y262695D01*
X366650Y263360D02*
X368750Y263360D01*
X368750Y264025D02*
X366650Y264025D01*
X366650Y264690D02*
X368750Y264690D01*
X368750Y265355D02*
X366650Y265355D01*
X366650Y266020D02*
X368750Y266020D01*
X368750Y266685D02*
X366650Y266685D01*
X366650Y267350D02*
X368750Y267350D01*
X368750Y268015D02*
X366650Y268015D01*
X366650Y268680D02*
X368750Y268680D01*
X373750Y268950D02*
X373750Y254050D01*
X371650Y254050D01*
X371650Y268950D01*
X373750Y268950D01*
X373750Y254715D02*
X371650Y254715D01*
X371650Y255380D02*
X373750Y255380D01*
X373750Y256045D02*
X371650Y256045D01*
X371650Y256710D02*
X373750Y256710D01*
X373750Y257375D02*
X371650Y257375D01*
X371650Y258040D02*
X373750Y258040D01*
X373750Y258705D02*
X371650Y258705D01*
X371650Y259370D02*
X373750Y259370D01*
X373750Y260035D02*
X371650Y260035D01*
X371650Y260700D02*
X373750Y260700D01*
X373750Y261365D02*
X371650Y261365D01*
X371650Y262030D02*
X373750Y262030D01*
X373750Y262695D02*
X371650Y262695D01*
X371650Y263360D02*
X373750Y263360D01*
X373750Y264025D02*
X371650Y264025D01*
X371650Y264690D02*
X373750Y264690D01*
X373750Y265355D02*
X371650Y265355D01*
X371650Y266020D02*
X373750Y266020D01*
X373750Y266685D02*
X371650Y266685D01*
X371650Y267350D02*
X373750Y267350D01*
X373750Y268015D02*
X371650Y268015D01*
X371650Y268680D02*
X373750Y268680D01*
X378750Y268950D02*
X378750Y254050D01*
X376650Y254050D01*
X376650Y268950D01*
X378750Y268950D01*
X378750Y254715D02*
X376650Y254715D01*
X376650Y255380D02*
X378750Y255380D01*
X378750Y256045D02*
X376650Y256045D01*
X376650Y256710D02*
X378750Y256710D01*
X378750Y257375D02*
X376650Y257375D01*
X376650Y258040D02*
X378750Y258040D01*
X378750Y258705D02*
X376650Y258705D01*
X376650Y259370D02*
X378750Y259370D01*
X378750Y260035D02*
X376650Y260035D01*
X376650Y260700D02*
X378750Y260700D01*
X378750Y261365D02*
X376650Y261365D01*
X376650Y262030D02*
X378750Y262030D01*
X378750Y262695D02*
X376650Y262695D01*
X376650Y263360D02*
X378750Y263360D01*
X378750Y264025D02*
X376650Y264025D01*
X376650Y264690D02*
X378750Y264690D01*
X378750Y265355D02*
X376650Y265355D01*
X376650Y266020D02*
X378750Y266020D01*
X378750Y266685D02*
X376650Y266685D01*
X376650Y267350D02*
X378750Y267350D01*
X378750Y268015D02*
X376650Y268015D01*
X376650Y268680D02*
X378750Y268680D01*
X383750Y268950D02*
X383750Y254050D01*
X381650Y254050D01*
X381650Y268950D01*
X383750Y268950D01*
X383750Y254715D02*
X381650Y254715D01*
X381650Y255380D02*
X383750Y255380D01*
X383750Y256045D02*
X381650Y256045D01*
X381650Y256710D02*
X383750Y256710D01*
X383750Y257375D02*
X381650Y257375D01*
X381650Y258040D02*
X383750Y258040D01*
X383750Y258705D02*
X381650Y258705D01*
X381650Y259370D02*
X383750Y259370D01*
X383750Y260035D02*
X381650Y260035D01*
X381650Y260700D02*
X383750Y260700D01*
X383750Y261365D02*
X381650Y261365D01*
X381650Y262030D02*
X383750Y262030D01*
X383750Y262695D02*
X381650Y262695D01*
X381650Y263360D02*
X383750Y263360D01*
X383750Y264025D02*
X381650Y264025D01*
X381650Y264690D02*
X383750Y264690D01*
X383750Y265355D02*
X381650Y265355D01*
X381650Y266020D02*
X383750Y266020D01*
X383750Y266685D02*
X381650Y266685D01*
X381650Y267350D02*
X383750Y267350D01*
X383750Y268015D02*
X381650Y268015D01*
X381650Y268680D02*
X383750Y268680D01*
X388750Y268950D02*
X388750Y254050D01*
X386650Y254050D01*
X386650Y268950D01*
X388750Y268950D01*
X388750Y254715D02*
X386650Y254715D01*
X386650Y255380D02*
X388750Y255380D01*
X388750Y256045D02*
X386650Y256045D01*
X386650Y256710D02*
X388750Y256710D01*
X388750Y257375D02*
X386650Y257375D01*
X386650Y258040D02*
X388750Y258040D01*
X388750Y258705D02*
X386650Y258705D01*
X386650Y259370D02*
X388750Y259370D01*
X388750Y260035D02*
X386650Y260035D01*
X386650Y260700D02*
X388750Y260700D01*
X388750Y261365D02*
X386650Y261365D01*
X386650Y262030D02*
X388750Y262030D01*
X388750Y262695D02*
X386650Y262695D01*
X386650Y263360D02*
X388750Y263360D01*
X388750Y264025D02*
X386650Y264025D01*
X386650Y264690D02*
X388750Y264690D01*
X388750Y265355D02*
X386650Y265355D01*
X386650Y266020D02*
X388750Y266020D01*
X388750Y266685D02*
X386650Y266685D01*
X386650Y267350D02*
X388750Y267350D01*
X388750Y268015D02*
X386650Y268015D01*
X386650Y268680D02*
X388750Y268680D01*
X393750Y268950D02*
X393750Y254050D01*
X391650Y254050D01*
X391650Y268950D01*
X393750Y268950D01*
X393750Y254715D02*
X391650Y254715D01*
X391650Y255380D02*
X393750Y255380D01*
X393750Y256045D02*
X391650Y256045D01*
X391650Y256710D02*
X393750Y256710D01*
X393750Y257375D02*
X391650Y257375D01*
X391650Y258040D02*
X393750Y258040D01*
X393750Y258705D02*
X391650Y258705D01*
X391650Y259370D02*
X393750Y259370D01*
X393750Y260035D02*
X391650Y260035D01*
X391650Y260700D02*
X393750Y260700D01*
X393750Y261365D02*
X391650Y261365D01*
X391650Y262030D02*
X393750Y262030D01*
X393750Y262695D02*
X391650Y262695D01*
X391650Y263360D02*
X393750Y263360D01*
X393750Y264025D02*
X391650Y264025D01*
X391650Y264690D02*
X393750Y264690D01*
X393750Y265355D02*
X391650Y265355D01*
X391650Y266020D02*
X393750Y266020D01*
X393750Y266685D02*
X391650Y266685D01*
X391650Y267350D02*
X393750Y267350D01*
X393750Y268015D02*
X391650Y268015D01*
X391650Y268680D02*
X393750Y268680D01*
X398750Y268950D02*
X398750Y254050D01*
X396650Y254050D01*
X396650Y268950D01*
X398750Y268950D01*
X398750Y254715D02*
X396650Y254715D01*
X396650Y255380D02*
X398750Y255380D01*
X398750Y256045D02*
X396650Y256045D01*
X396650Y256710D02*
X398750Y256710D01*
X398750Y257375D02*
X396650Y257375D01*
X396650Y258040D02*
X398750Y258040D01*
X398750Y258705D02*
X396650Y258705D01*
X396650Y259370D02*
X398750Y259370D01*
X398750Y260035D02*
X396650Y260035D01*
X396650Y260700D02*
X398750Y260700D01*
X398750Y261365D02*
X396650Y261365D01*
X396650Y262030D02*
X398750Y262030D01*
X398750Y262695D02*
X396650Y262695D01*
X396650Y263360D02*
X398750Y263360D01*
X398750Y264025D02*
X396650Y264025D01*
X396650Y264690D02*
X398750Y264690D01*
X398750Y265355D02*
X396650Y265355D01*
X396650Y266020D02*
X398750Y266020D01*
X398750Y266685D02*
X396650Y266685D01*
X396650Y267350D02*
X398750Y267350D01*
X398750Y268015D02*
X396650Y268015D01*
X396650Y268680D02*
X398750Y268680D01*
X403750Y268950D02*
X403750Y254050D01*
X401650Y254050D01*
X401650Y268950D01*
X403750Y268950D01*
X403750Y254715D02*
X401650Y254715D01*
X401650Y255380D02*
X403750Y255380D01*
X403750Y256045D02*
X401650Y256045D01*
X401650Y256710D02*
X403750Y256710D01*
X403750Y257375D02*
X401650Y257375D01*
X401650Y258040D02*
X403750Y258040D01*
X403750Y258705D02*
X401650Y258705D01*
X401650Y259370D02*
X403750Y259370D01*
X403750Y260035D02*
X401650Y260035D01*
X401650Y260700D02*
X403750Y260700D01*
X403750Y261365D02*
X401650Y261365D01*
X401650Y262030D02*
X403750Y262030D01*
X403750Y262695D02*
X401650Y262695D01*
X401650Y263360D02*
X403750Y263360D01*
X403750Y264025D02*
X401650Y264025D01*
X401650Y264690D02*
X403750Y264690D01*
X403750Y265355D02*
X401650Y265355D01*
X401650Y266020D02*
X403750Y266020D01*
X403750Y266685D02*
X401650Y266685D01*
X401650Y267350D02*
X403750Y267350D01*
X403750Y268015D02*
X401650Y268015D01*
X401650Y268680D02*
X403750Y268680D01*
X408750Y268950D02*
X408750Y254050D01*
X406650Y254050D01*
X406650Y268950D01*
X408750Y268950D01*
X408750Y254715D02*
X406650Y254715D01*
X406650Y255380D02*
X408750Y255380D01*
X408750Y256045D02*
X406650Y256045D01*
X406650Y256710D02*
X408750Y256710D01*
X408750Y257375D02*
X406650Y257375D01*
X406650Y258040D02*
X408750Y258040D01*
X408750Y258705D02*
X406650Y258705D01*
X406650Y259370D02*
X408750Y259370D01*
X408750Y260035D02*
X406650Y260035D01*
X406650Y260700D02*
X408750Y260700D01*
X408750Y261365D02*
X406650Y261365D01*
X406650Y262030D02*
X408750Y262030D01*
X408750Y262695D02*
X406650Y262695D01*
X406650Y263360D02*
X408750Y263360D01*
X408750Y264025D02*
X406650Y264025D01*
X406650Y264690D02*
X408750Y264690D01*
X408750Y265355D02*
X406650Y265355D01*
X406650Y266020D02*
X408750Y266020D01*
X408750Y266685D02*
X406650Y266685D01*
X406650Y267350D02*
X408750Y267350D01*
X408750Y268015D02*
X406650Y268015D01*
X406650Y268680D02*
X408750Y268680D01*
X413750Y268950D02*
X413750Y254050D01*
X411650Y254050D01*
X411650Y268950D01*
X413750Y268950D01*
X413750Y254715D02*
X411650Y254715D01*
X411650Y255380D02*
X413750Y255380D01*
X413750Y256045D02*
X411650Y256045D01*
X411650Y256710D02*
X413750Y256710D01*
X413750Y257375D02*
X411650Y257375D01*
X411650Y258040D02*
X413750Y258040D01*
X413750Y258705D02*
X411650Y258705D01*
X411650Y259370D02*
X413750Y259370D01*
X413750Y260035D02*
X411650Y260035D01*
X411650Y260700D02*
X413750Y260700D01*
X413750Y261365D02*
X411650Y261365D01*
X411650Y262030D02*
X413750Y262030D01*
X413750Y262695D02*
X411650Y262695D01*
X411650Y263360D02*
X413750Y263360D01*
X413750Y264025D02*
X411650Y264025D01*
X411650Y264690D02*
X413750Y264690D01*
X413750Y265355D02*
X411650Y265355D01*
X411650Y266020D02*
X413750Y266020D01*
X413750Y266685D02*
X411650Y266685D01*
X411650Y267350D02*
X413750Y267350D01*
X413750Y268015D02*
X411650Y268015D01*
X411650Y268680D02*
X413750Y268680D01*
X418750Y268950D02*
X418750Y254050D01*
X416650Y254050D01*
X416650Y268950D01*
X418750Y268950D01*
X418750Y254715D02*
X416650Y254715D01*
X416650Y255380D02*
X418750Y255380D01*
X418750Y256045D02*
X416650Y256045D01*
X416650Y256710D02*
X418750Y256710D01*
X418750Y257375D02*
X416650Y257375D01*
X416650Y258040D02*
X418750Y258040D01*
X418750Y258705D02*
X416650Y258705D01*
X416650Y259370D02*
X418750Y259370D01*
X418750Y260035D02*
X416650Y260035D01*
X416650Y260700D02*
X418750Y260700D01*
X418750Y261365D02*
X416650Y261365D01*
X416650Y262030D02*
X418750Y262030D01*
X418750Y262695D02*
X416650Y262695D01*
X416650Y263360D02*
X418750Y263360D01*
X418750Y264025D02*
X416650Y264025D01*
X416650Y264690D02*
X418750Y264690D01*
X418750Y265355D02*
X416650Y265355D01*
X416650Y266020D02*
X418750Y266020D01*
X418750Y266685D02*
X416650Y266685D01*
X416650Y267350D02*
X418750Y267350D01*
X418750Y268015D02*
X416650Y268015D01*
X416650Y268680D02*
X418750Y268680D01*
X418750Y467650D02*
X418750Y482550D01*
X418750Y467650D02*
X416650Y467650D01*
X416650Y482550D01*
X418750Y482550D01*
X418750Y468315D02*
X416650Y468315D01*
X416650Y468980D02*
X418750Y468980D01*
X418750Y469645D02*
X416650Y469645D01*
X416650Y470310D02*
X418750Y470310D01*
X418750Y470975D02*
X416650Y470975D01*
X416650Y471640D02*
X418750Y471640D01*
X418750Y472305D02*
X416650Y472305D01*
X416650Y472970D02*
X418750Y472970D01*
X418750Y473635D02*
X416650Y473635D01*
X416650Y474300D02*
X418750Y474300D01*
X418750Y474965D02*
X416650Y474965D01*
X416650Y475630D02*
X418750Y475630D01*
X418750Y476295D02*
X416650Y476295D01*
X416650Y476960D02*
X418750Y476960D01*
X418750Y477625D02*
X416650Y477625D01*
X416650Y478290D02*
X418750Y478290D01*
X418750Y478955D02*
X416650Y478955D01*
X416650Y479620D02*
X418750Y479620D01*
X418750Y480285D02*
X416650Y480285D01*
X416650Y480950D02*
X418750Y480950D01*
X418750Y481615D02*
X416650Y481615D01*
X416650Y482280D02*
X418750Y482280D01*
X413750Y482550D02*
X413750Y467650D01*
X411650Y467650D01*
X411650Y482550D01*
X413750Y482550D01*
X413750Y468315D02*
X411650Y468315D01*
X411650Y468980D02*
X413750Y468980D01*
X413750Y469645D02*
X411650Y469645D01*
X411650Y470310D02*
X413750Y470310D01*
X413750Y470975D02*
X411650Y470975D01*
X411650Y471640D02*
X413750Y471640D01*
X413750Y472305D02*
X411650Y472305D01*
X411650Y472970D02*
X413750Y472970D01*
X413750Y473635D02*
X411650Y473635D01*
X411650Y474300D02*
X413750Y474300D01*
X413750Y474965D02*
X411650Y474965D01*
X411650Y475630D02*
X413750Y475630D01*
X413750Y476295D02*
X411650Y476295D01*
X411650Y476960D02*
X413750Y476960D01*
X413750Y477625D02*
X411650Y477625D01*
X411650Y478290D02*
X413750Y478290D01*
X413750Y478955D02*
X411650Y478955D01*
X411650Y479620D02*
X413750Y479620D01*
X413750Y480285D02*
X411650Y480285D01*
X411650Y480950D02*
X413750Y480950D01*
X413750Y481615D02*
X411650Y481615D01*
X411650Y482280D02*
X413750Y482280D01*
X408750Y482550D02*
X408750Y467650D01*
X406650Y467650D01*
X406650Y482550D01*
X408750Y482550D01*
X408750Y468315D02*
X406650Y468315D01*
X406650Y468980D02*
X408750Y468980D01*
X408750Y469645D02*
X406650Y469645D01*
X406650Y470310D02*
X408750Y470310D01*
X408750Y470975D02*
X406650Y470975D01*
X406650Y471640D02*
X408750Y471640D01*
X408750Y472305D02*
X406650Y472305D01*
X406650Y472970D02*
X408750Y472970D01*
X408750Y473635D02*
X406650Y473635D01*
X406650Y474300D02*
X408750Y474300D01*
X408750Y474965D02*
X406650Y474965D01*
X406650Y475630D02*
X408750Y475630D01*
X408750Y476295D02*
X406650Y476295D01*
X406650Y476960D02*
X408750Y476960D01*
X408750Y477625D02*
X406650Y477625D01*
X406650Y478290D02*
X408750Y478290D01*
X408750Y478955D02*
X406650Y478955D01*
X406650Y479620D02*
X408750Y479620D01*
X408750Y480285D02*
X406650Y480285D01*
X406650Y480950D02*
X408750Y480950D01*
X408750Y481615D02*
X406650Y481615D01*
X406650Y482280D02*
X408750Y482280D01*
X403750Y482550D02*
X403750Y467650D01*
X401650Y467650D01*
X401650Y482550D01*
X403750Y482550D01*
X403750Y468315D02*
X401650Y468315D01*
X401650Y468980D02*
X403750Y468980D01*
X403750Y469645D02*
X401650Y469645D01*
X401650Y470310D02*
X403750Y470310D01*
X403750Y470975D02*
X401650Y470975D01*
X401650Y471640D02*
X403750Y471640D01*
X403750Y472305D02*
X401650Y472305D01*
X401650Y472970D02*
X403750Y472970D01*
X403750Y473635D02*
X401650Y473635D01*
X401650Y474300D02*
X403750Y474300D01*
X403750Y474965D02*
X401650Y474965D01*
X401650Y475630D02*
X403750Y475630D01*
X403750Y476295D02*
X401650Y476295D01*
X401650Y476960D02*
X403750Y476960D01*
X403750Y477625D02*
X401650Y477625D01*
X401650Y478290D02*
X403750Y478290D01*
X403750Y478955D02*
X401650Y478955D01*
X401650Y479620D02*
X403750Y479620D01*
X403750Y480285D02*
X401650Y480285D01*
X401650Y480950D02*
X403750Y480950D01*
X403750Y481615D02*
X401650Y481615D01*
X401650Y482280D02*
X403750Y482280D01*
X398750Y482550D02*
X398750Y467650D01*
X396650Y467650D01*
X396650Y482550D01*
X398750Y482550D01*
X398750Y468315D02*
X396650Y468315D01*
X396650Y468980D02*
X398750Y468980D01*
X398750Y469645D02*
X396650Y469645D01*
X396650Y470310D02*
X398750Y470310D01*
X398750Y470975D02*
X396650Y470975D01*
X396650Y471640D02*
X398750Y471640D01*
X398750Y472305D02*
X396650Y472305D01*
X396650Y472970D02*
X398750Y472970D01*
X398750Y473635D02*
X396650Y473635D01*
X396650Y474300D02*
X398750Y474300D01*
X398750Y474965D02*
X396650Y474965D01*
X396650Y475630D02*
X398750Y475630D01*
X398750Y476295D02*
X396650Y476295D01*
X396650Y476960D02*
X398750Y476960D01*
X398750Y477625D02*
X396650Y477625D01*
X396650Y478290D02*
X398750Y478290D01*
X398750Y478955D02*
X396650Y478955D01*
X396650Y479620D02*
X398750Y479620D01*
X398750Y480285D02*
X396650Y480285D01*
X396650Y480950D02*
X398750Y480950D01*
X398750Y481615D02*
X396650Y481615D01*
X396650Y482280D02*
X398750Y482280D01*
X393750Y482550D02*
X393750Y467650D01*
X391650Y467650D01*
X391650Y482550D01*
X393750Y482550D01*
X393750Y468315D02*
X391650Y468315D01*
X391650Y468980D02*
X393750Y468980D01*
X393750Y469645D02*
X391650Y469645D01*
X391650Y470310D02*
X393750Y470310D01*
X393750Y470975D02*
X391650Y470975D01*
X391650Y471640D02*
X393750Y471640D01*
X393750Y472305D02*
X391650Y472305D01*
X391650Y472970D02*
X393750Y472970D01*
X393750Y473635D02*
X391650Y473635D01*
X391650Y474300D02*
X393750Y474300D01*
X393750Y474965D02*
X391650Y474965D01*
X391650Y475630D02*
X393750Y475630D01*
X393750Y476295D02*
X391650Y476295D01*
X391650Y476960D02*
X393750Y476960D01*
X393750Y477625D02*
X391650Y477625D01*
X391650Y478290D02*
X393750Y478290D01*
X393750Y478955D02*
X391650Y478955D01*
X391650Y479620D02*
X393750Y479620D01*
X393750Y480285D02*
X391650Y480285D01*
X391650Y480950D02*
X393750Y480950D01*
X393750Y481615D02*
X391650Y481615D01*
X391650Y482280D02*
X393750Y482280D01*
X388750Y482550D02*
X388750Y467650D01*
X386650Y467650D01*
X386650Y482550D01*
X388750Y482550D01*
X388750Y468315D02*
X386650Y468315D01*
X386650Y468980D02*
X388750Y468980D01*
X388750Y469645D02*
X386650Y469645D01*
X386650Y470310D02*
X388750Y470310D01*
X388750Y470975D02*
X386650Y470975D01*
X386650Y471640D02*
X388750Y471640D01*
X388750Y472305D02*
X386650Y472305D01*
X386650Y472970D02*
X388750Y472970D01*
X388750Y473635D02*
X386650Y473635D01*
X386650Y474300D02*
X388750Y474300D01*
X388750Y474965D02*
X386650Y474965D01*
X386650Y475630D02*
X388750Y475630D01*
X388750Y476295D02*
X386650Y476295D01*
X386650Y476960D02*
X388750Y476960D01*
X388750Y477625D02*
X386650Y477625D01*
X386650Y478290D02*
X388750Y478290D01*
X388750Y478955D02*
X386650Y478955D01*
X386650Y479620D02*
X388750Y479620D01*
X388750Y480285D02*
X386650Y480285D01*
X386650Y480950D02*
X388750Y480950D01*
X388750Y481615D02*
X386650Y481615D01*
X386650Y482280D02*
X388750Y482280D01*
X383750Y482550D02*
X383750Y467650D01*
X381650Y467650D01*
X381650Y482550D01*
X383750Y482550D01*
X383750Y468315D02*
X381650Y468315D01*
X381650Y468980D02*
X383750Y468980D01*
X383750Y469645D02*
X381650Y469645D01*
X381650Y470310D02*
X383750Y470310D01*
X383750Y470975D02*
X381650Y470975D01*
X381650Y471640D02*
X383750Y471640D01*
X383750Y472305D02*
X381650Y472305D01*
X381650Y472970D02*
X383750Y472970D01*
X383750Y473635D02*
X381650Y473635D01*
X381650Y474300D02*
X383750Y474300D01*
X383750Y474965D02*
X381650Y474965D01*
X381650Y475630D02*
X383750Y475630D01*
X383750Y476295D02*
X381650Y476295D01*
X381650Y476960D02*
X383750Y476960D01*
X383750Y477625D02*
X381650Y477625D01*
X381650Y478290D02*
X383750Y478290D01*
X383750Y478955D02*
X381650Y478955D01*
X381650Y479620D02*
X383750Y479620D01*
X383750Y480285D02*
X381650Y480285D01*
X381650Y480950D02*
X383750Y480950D01*
X383750Y481615D02*
X381650Y481615D01*
X381650Y482280D02*
X383750Y482280D01*
X378750Y482550D02*
X378750Y467650D01*
X376650Y467650D01*
X376650Y482550D01*
X378750Y482550D01*
X378750Y468315D02*
X376650Y468315D01*
X376650Y468980D02*
X378750Y468980D01*
X378750Y469645D02*
X376650Y469645D01*
X376650Y470310D02*
X378750Y470310D01*
X378750Y470975D02*
X376650Y470975D01*
X376650Y471640D02*
X378750Y471640D01*
X378750Y472305D02*
X376650Y472305D01*
X376650Y472970D02*
X378750Y472970D01*
X378750Y473635D02*
X376650Y473635D01*
X376650Y474300D02*
X378750Y474300D01*
X378750Y474965D02*
X376650Y474965D01*
X376650Y475630D02*
X378750Y475630D01*
X378750Y476295D02*
X376650Y476295D01*
X376650Y476960D02*
X378750Y476960D01*
X378750Y477625D02*
X376650Y477625D01*
X376650Y478290D02*
X378750Y478290D01*
X378750Y478955D02*
X376650Y478955D01*
X376650Y479620D02*
X378750Y479620D01*
X378750Y480285D02*
X376650Y480285D01*
X376650Y480950D02*
X378750Y480950D01*
X378750Y481615D02*
X376650Y481615D01*
X376650Y482280D02*
X378750Y482280D01*
X373750Y482550D02*
X373750Y467650D01*
X371650Y467650D01*
X371650Y482550D01*
X373750Y482550D01*
X373750Y468315D02*
X371650Y468315D01*
X371650Y468980D02*
X373750Y468980D01*
X373750Y469645D02*
X371650Y469645D01*
X371650Y470310D02*
X373750Y470310D01*
X373750Y470975D02*
X371650Y470975D01*
X371650Y471640D02*
X373750Y471640D01*
X373750Y472305D02*
X371650Y472305D01*
X371650Y472970D02*
X373750Y472970D01*
X373750Y473635D02*
X371650Y473635D01*
X371650Y474300D02*
X373750Y474300D01*
X373750Y474965D02*
X371650Y474965D01*
X371650Y475630D02*
X373750Y475630D01*
X373750Y476295D02*
X371650Y476295D01*
X371650Y476960D02*
X373750Y476960D01*
X373750Y477625D02*
X371650Y477625D01*
X371650Y478290D02*
X373750Y478290D01*
X373750Y478955D02*
X371650Y478955D01*
X371650Y479620D02*
X373750Y479620D01*
X373750Y480285D02*
X371650Y480285D01*
X371650Y480950D02*
X373750Y480950D01*
X373750Y481615D02*
X371650Y481615D01*
X371650Y482280D02*
X373750Y482280D01*
X368750Y482550D02*
X368750Y467650D01*
X366650Y467650D01*
X366650Y482550D01*
X368750Y482550D01*
X368750Y468315D02*
X366650Y468315D01*
X366650Y468980D02*
X368750Y468980D01*
X368750Y469645D02*
X366650Y469645D01*
X366650Y470310D02*
X368750Y470310D01*
X368750Y470975D02*
X366650Y470975D01*
X366650Y471640D02*
X368750Y471640D01*
X368750Y472305D02*
X366650Y472305D01*
X366650Y472970D02*
X368750Y472970D01*
X368750Y473635D02*
X366650Y473635D01*
X366650Y474300D02*
X368750Y474300D01*
X368750Y474965D02*
X366650Y474965D01*
X366650Y475630D02*
X368750Y475630D01*
X368750Y476295D02*
X366650Y476295D01*
X366650Y476960D02*
X368750Y476960D01*
X368750Y477625D02*
X366650Y477625D01*
X366650Y478290D02*
X368750Y478290D01*
X368750Y478955D02*
X366650Y478955D01*
X366650Y479620D02*
X368750Y479620D01*
X368750Y480285D02*
X366650Y480285D01*
X366650Y480950D02*
X368750Y480950D01*
X368750Y481615D02*
X366650Y481615D01*
X366650Y482280D02*
X368750Y482280D01*
X363750Y482550D02*
X363750Y467650D01*
X361650Y467650D01*
X361650Y482550D01*
X363750Y482550D01*
X363750Y468315D02*
X361650Y468315D01*
X361650Y468980D02*
X363750Y468980D01*
X363750Y469645D02*
X361650Y469645D01*
X361650Y470310D02*
X363750Y470310D01*
X363750Y470975D02*
X361650Y470975D01*
X361650Y471640D02*
X363750Y471640D01*
X363750Y472305D02*
X361650Y472305D01*
X361650Y472970D02*
X363750Y472970D01*
X363750Y473635D02*
X361650Y473635D01*
X361650Y474300D02*
X363750Y474300D01*
X363750Y474965D02*
X361650Y474965D01*
X361650Y475630D02*
X363750Y475630D01*
X363750Y476295D02*
X361650Y476295D01*
X361650Y476960D02*
X363750Y476960D01*
X363750Y477625D02*
X361650Y477625D01*
X361650Y478290D02*
X363750Y478290D01*
X363750Y478955D02*
X361650Y478955D01*
X361650Y479620D02*
X363750Y479620D01*
X363750Y480285D02*
X361650Y480285D01*
X361650Y480950D02*
X363750Y480950D01*
X363750Y481615D02*
X361650Y481615D01*
X361650Y482280D02*
X363750Y482280D01*
X358750Y482550D02*
X358750Y467650D01*
X356650Y467650D01*
X356650Y482550D01*
X358750Y482550D01*
X358750Y468315D02*
X356650Y468315D01*
X356650Y468980D02*
X358750Y468980D01*
X358750Y469645D02*
X356650Y469645D01*
X356650Y470310D02*
X358750Y470310D01*
X358750Y470975D02*
X356650Y470975D01*
X356650Y471640D02*
X358750Y471640D01*
X358750Y472305D02*
X356650Y472305D01*
X356650Y472970D02*
X358750Y472970D01*
X358750Y473635D02*
X356650Y473635D01*
X356650Y474300D02*
X358750Y474300D01*
X358750Y474965D02*
X356650Y474965D01*
X356650Y475630D02*
X358750Y475630D01*
X358750Y476295D02*
X356650Y476295D01*
X356650Y476960D02*
X358750Y476960D01*
X358750Y477625D02*
X356650Y477625D01*
X356650Y478290D02*
X358750Y478290D01*
X358750Y478955D02*
X356650Y478955D01*
X356650Y479620D02*
X358750Y479620D01*
X358750Y480285D02*
X356650Y480285D01*
X356650Y480950D02*
X358750Y480950D01*
X358750Y481615D02*
X356650Y481615D01*
X356650Y482280D02*
X358750Y482280D01*
X353750Y482550D02*
X353750Y467650D01*
X351650Y467650D01*
X351650Y482550D01*
X353750Y482550D01*
X353750Y468315D02*
X351650Y468315D01*
X351650Y468980D02*
X353750Y468980D01*
X353750Y469645D02*
X351650Y469645D01*
X351650Y470310D02*
X353750Y470310D01*
X353750Y470975D02*
X351650Y470975D01*
X351650Y471640D02*
X353750Y471640D01*
X353750Y472305D02*
X351650Y472305D01*
X351650Y472970D02*
X353750Y472970D01*
X353750Y473635D02*
X351650Y473635D01*
X351650Y474300D02*
X353750Y474300D01*
X353750Y474965D02*
X351650Y474965D01*
X351650Y475630D02*
X353750Y475630D01*
X353750Y476295D02*
X351650Y476295D01*
X351650Y476960D02*
X353750Y476960D01*
X353750Y477625D02*
X351650Y477625D01*
X351650Y478290D02*
X353750Y478290D01*
X353750Y478955D02*
X351650Y478955D01*
X351650Y479620D02*
X353750Y479620D01*
X353750Y480285D02*
X351650Y480285D01*
X351650Y480950D02*
X353750Y480950D01*
X353750Y481615D02*
X351650Y481615D01*
X351650Y482280D02*
X353750Y482280D01*
X348750Y482550D02*
X348750Y467650D01*
X346650Y467650D01*
X346650Y482550D01*
X348750Y482550D01*
X348750Y468315D02*
X346650Y468315D01*
X346650Y468980D02*
X348750Y468980D01*
X348750Y469645D02*
X346650Y469645D01*
X346650Y470310D02*
X348750Y470310D01*
X348750Y470975D02*
X346650Y470975D01*
X346650Y471640D02*
X348750Y471640D01*
X348750Y472305D02*
X346650Y472305D01*
X346650Y472970D02*
X348750Y472970D01*
X348750Y473635D02*
X346650Y473635D01*
X346650Y474300D02*
X348750Y474300D01*
X348750Y474965D02*
X346650Y474965D01*
X346650Y475630D02*
X348750Y475630D01*
X348750Y476295D02*
X346650Y476295D01*
X346650Y476960D02*
X348750Y476960D01*
X348750Y477625D02*
X346650Y477625D01*
X346650Y478290D02*
X348750Y478290D01*
X348750Y478955D02*
X346650Y478955D01*
X346650Y479620D02*
X348750Y479620D01*
X348750Y480285D02*
X346650Y480285D01*
X346650Y480950D02*
X348750Y480950D01*
X348750Y481615D02*
X346650Y481615D01*
X346650Y482280D02*
X348750Y482280D01*
X343750Y482550D02*
X343750Y467650D01*
X341650Y467650D01*
X341650Y482550D01*
X343750Y482550D01*
X343750Y468315D02*
X341650Y468315D01*
X341650Y468980D02*
X343750Y468980D01*
X343750Y469645D02*
X341650Y469645D01*
X341650Y470310D02*
X343750Y470310D01*
X343750Y470975D02*
X341650Y470975D01*
X341650Y471640D02*
X343750Y471640D01*
X343750Y472305D02*
X341650Y472305D01*
X341650Y472970D02*
X343750Y472970D01*
X343750Y473635D02*
X341650Y473635D01*
X341650Y474300D02*
X343750Y474300D01*
X343750Y474965D02*
X341650Y474965D01*
X341650Y475630D02*
X343750Y475630D01*
X343750Y476295D02*
X341650Y476295D01*
X341650Y476960D02*
X343750Y476960D01*
X343750Y477625D02*
X341650Y477625D01*
X341650Y478290D02*
X343750Y478290D01*
X343750Y478955D02*
X341650Y478955D01*
X341650Y479620D02*
X343750Y479620D01*
X343750Y480285D02*
X341650Y480285D01*
X341650Y480950D02*
X343750Y480950D01*
X343750Y481615D02*
X341650Y481615D01*
X341650Y482280D02*
X343750Y482280D01*
X338750Y482550D02*
X338750Y467650D01*
X336650Y467650D01*
X336650Y482550D01*
X338750Y482550D01*
X338750Y468315D02*
X336650Y468315D01*
X336650Y468980D02*
X338750Y468980D01*
X338750Y469645D02*
X336650Y469645D01*
X336650Y470310D02*
X338750Y470310D01*
X338750Y470975D02*
X336650Y470975D01*
X336650Y471640D02*
X338750Y471640D01*
X338750Y472305D02*
X336650Y472305D01*
X336650Y472970D02*
X338750Y472970D01*
X338750Y473635D02*
X336650Y473635D01*
X336650Y474300D02*
X338750Y474300D01*
X338750Y474965D02*
X336650Y474965D01*
X336650Y475630D02*
X338750Y475630D01*
X338750Y476295D02*
X336650Y476295D01*
X336650Y476960D02*
X338750Y476960D01*
X338750Y477625D02*
X336650Y477625D01*
X336650Y478290D02*
X338750Y478290D01*
X338750Y478955D02*
X336650Y478955D01*
X336650Y479620D02*
X338750Y479620D01*
X338750Y480285D02*
X336650Y480285D01*
X336650Y480950D02*
X338750Y480950D01*
X338750Y481615D02*
X336650Y481615D01*
X336650Y482280D02*
X338750Y482280D01*
X333750Y482550D02*
X333750Y467650D01*
X331650Y467650D01*
X331650Y482550D01*
X333750Y482550D01*
X333750Y468315D02*
X331650Y468315D01*
X331650Y468980D02*
X333750Y468980D01*
X333750Y469645D02*
X331650Y469645D01*
X331650Y470310D02*
X333750Y470310D01*
X333750Y470975D02*
X331650Y470975D01*
X331650Y471640D02*
X333750Y471640D01*
X333750Y472305D02*
X331650Y472305D01*
X331650Y472970D02*
X333750Y472970D01*
X333750Y473635D02*
X331650Y473635D01*
X331650Y474300D02*
X333750Y474300D01*
X333750Y474965D02*
X331650Y474965D01*
X331650Y475630D02*
X333750Y475630D01*
X333750Y476295D02*
X331650Y476295D01*
X331650Y476960D02*
X333750Y476960D01*
X333750Y477625D02*
X331650Y477625D01*
X331650Y478290D02*
X333750Y478290D01*
X333750Y478955D02*
X331650Y478955D01*
X331650Y479620D02*
X333750Y479620D01*
X333750Y480285D02*
X331650Y480285D01*
X331650Y480950D02*
X333750Y480950D01*
X333750Y481615D02*
X331650Y481615D01*
X331650Y482280D02*
X333750Y482280D01*
X328750Y482550D02*
X328750Y467650D01*
X326650Y467650D01*
X326650Y482550D01*
X328750Y482550D01*
X328750Y468315D02*
X326650Y468315D01*
X326650Y468980D02*
X328750Y468980D01*
X328750Y469645D02*
X326650Y469645D01*
X326650Y470310D02*
X328750Y470310D01*
X328750Y470975D02*
X326650Y470975D01*
X326650Y471640D02*
X328750Y471640D01*
X328750Y472305D02*
X326650Y472305D01*
X326650Y472970D02*
X328750Y472970D01*
X328750Y473635D02*
X326650Y473635D01*
X326650Y474300D02*
X328750Y474300D01*
X328750Y474965D02*
X326650Y474965D01*
X326650Y475630D02*
X328750Y475630D01*
X328750Y476295D02*
X326650Y476295D01*
X326650Y476960D02*
X328750Y476960D01*
X328750Y477625D02*
X326650Y477625D01*
X326650Y478290D02*
X328750Y478290D01*
X328750Y478955D02*
X326650Y478955D01*
X326650Y479620D02*
X328750Y479620D01*
X328750Y480285D02*
X326650Y480285D01*
X326650Y480950D02*
X328750Y480950D01*
X328750Y481615D02*
X326650Y481615D01*
X326650Y482280D02*
X328750Y482280D01*
X323750Y482550D02*
X323750Y467650D01*
X321650Y467650D01*
X321650Y482550D01*
X323750Y482550D01*
X323750Y468315D02*
X321650Y468315D01*
X321650Y468980D02*
X323750Y468980D01*
X323750Y469645D02*
X321650Y469645D01*
X321650Y470310D02*
X323750Y470310D01*
X323750Y470975D02*
X321650Y470975D01*
X321650Y471640D02*
X323750Y471640D01*
X323750Y472305D02*
X321650Y472305D01*
X321650Y472970D02*
X323750Y472970D01*
X323750Y473635D02*
X321650Y473635D01*
X321650Y474300D02*
X323750Y474300D01*
X323750Y474965D02*
X321650Y474965D01*
X321650Y475630D02*
X323750Y475630D01*
X323750Y476295D02*
X321650Y476295D01*
X321650Y476960D02*
X323750Y476960D01*
X323750Y477625D02*
X321650Y477625D01*
X321650Y478290D02*
X323750Y478290D01*
X323750Y478955D02*
X321650Y478955D01*
X321650Y479620D02*
X323750Y479620D01*
X323750Y480285D02*
X321650Y480285D01*
X321650Y480950D02*
X323750Y480950D01*
X323750Y481615D02*
X321650Y481615D01*
X321650Y482280D02*
X323750Y482280D01*
X318750Y482550D02*
X318750Y467650D01*
X316650Y467650D01*
X316650Y482550D01*
X318750Y482550D01*
X318750Y468315D02*
X316650Y468315D01*
X316650Y468980D02*
X318750Y468980D01*
X318750Y469645D02*
X316650Y469645D01*
X316650Y470310D02*
X318750Y470310D01*
X318750Y470975D02*
X316650Y470975D01*
X316650Y471640D02*
X318750Y471640D01*
X318750Y472305D02*
X316650Y472305D01*
X316650Y472970D02*
X318750Y472970D01*
X318750Y473635D02*
X316650Y473635D01*
X316650Y474300D02*
X318750Y474300D01*
X318750Y474965D02*
X316650Y474965D01*
X316650Y475630D02*
X318750Y475630D01*
X318750Y476295D02*
X316650Y476295D01*
X316650Y476960D02*
X318750Y476960D01*
X318750Y477625D02*
X316650Y477625D01*
X316650Y478290D02*
X318750Y478290D01*
X318750Y478955D02*
X316650Y478955D01*
X316650Y479620D02*
X318750Y479620D01*
X318750Y480285D02*
X316650Y480285D01*
X316650Y480950D02*
X318750Y480950D01*
X318750Y481615D02*
X316650Y481615D01*
X316650Y482280D02*
X318750Y482280D01*
X313750Y482550D02*
X313750Y467650D01*
X311650Y467650D01*
X311650Y482550D01*
X313750Y482550D01*
X313750Y468315D02*
X311650Y468315D01*
X311650Y468980D02*
X313750Y468980D01*
X313750Y469645D02*
X311650Y469645D01*
X311650Y470310D02*
X313750Y470310D01*
X313750Y470975D02*
X311650Y470975D01*
X311650Y471640D02*
X313750Y471640D01*
X313750Y472305D02*
X311650Y472305D01*
X311650Y472970D02*
X313750Y472970D01*
X313750Y473635D02*
X311650Y473635D01*
X311650Y474300D02*
X313750Y474300D01*
X313750Y474965D02*
X311650Y474965D01*
X311650Y475630D02*
X313750Y475630D01*
X313750Y476295D02*
X311650Y476295D01*
X311650Y476960D02*
X313750Y476960D01*
X313750Y477625D02*
X311650Y477625D01*
X311650Y478290D02*
X313750Y478290D01*
X313750Y478955D02*
X311650Y478955D01*
X311650Y479620D02*
X313750Y479620D01*
X313750Y480285D02*
X311650Y480285D01*
X311650Y480950D02*
X313750Y480950D01*
X313750Y481615D02*
X311650Y481615D01*
X311650Y482280D02*
X313750Y482280D01*
X308750Y482550D02*
X308750Y467650D01*
X306650Y467650D01*
X306650Y482550D01*
X308750Y482550D01*
X308750Y468315D02*
X306650Y468315D01*
X306650Y468980D02*
X308750Y468980D01*
X308750Y469645D02*
X306650Y469645D01*
X306650Y470310D02*
X308750Y470310D01*
X308750Y470975D02*
X306650Y470975D01*
X306650Y471640D02*
X308750Y471640D01*
X308750Y472305D02*
X306650Y472305D01*
X306650Y472970D02*
X308750Y472970D01*
X308750Y473635D02*
X306650Y473635D01*
X306650Y474300D02*
X308750Y474300D01*
X308750Y474965D02*
X306650Y474965D01*
X306650Y475630D02*
X308750Y475630D01*
X308750Y476295D02*
X306650Y476295D01*
X306650Y476960D02*
X308750Y476960D01*
X308750Y477625D02*
X306650Y477625D01*
X306650Y478290D02*
X308750Y478290D01*
X308750Y478955D02*
X306650Y478955D01*
X306650Y479620D02*
X308750Y479620D01*
X308750Y480285D02*
X306650Y480285D01*
X306650Y480950D02*
X308750Y480950D01*
X308750Y481615D02*
X306650Y481615D01*
X306650Y482280D02*
X308750Y482280D01*
X303750Y482550D02*
X303750Y467650D01*
X301650Y467650D01*
X301650Y482550D01*
X303750Y482550D01*
X303750Y468315D02*
X301650Y468315D01*
X301650Y468980D02*
X303750Y468980D01*
X303750Y469645D02*
X301650Y469645D01*
X301650Y470310D02*
X303750Y470310D01*
X303750Y470975D02*
X301650Y470975D01*
X301650Y471640D02*
X303750Y471640D01*
X303750Y472305D02*
X301650Y472305D01*
X301650Y472970D02*
X303750Y472970D01*
X303750Y473635D02*
X301650Y473635D01*
X301650Y474300D02*
X303750Y474300D01*
X303750Y474965D02*
X301650Y474965D01*
X301650Y475630D02*
X303750Y475630D01*
X303750Y476295D02*
X301650Y476295D01*
X301650Y476960D02*
X303750Y476960D01*
X303750Y477625D02*
X301650Y477625D01*
X301650Y478290D02*
X303750Y478290D01*
X303750Y478955D02*
X301650Y478955D01*
X301650Y479620D02*
X303750Y479620D01*
X303750Y480285D02*
X301650Y480285D01*
X301650Y480950D02*
X303750Y480950D01*
X303750Y481615D02*
X301650Y481615D01*
X301650Y482280D02*
X303750Y482280D01*
X298750Y482550D02*
X298750Y467650D01*
X296650Y467650D01*
X296650Y482550D01*
X298750Y482550D01*
X298750Y468315D02*
X296650Y468315D01*
X296650Y468980D02*
X298750Y468980D01*
X298750Y469645D02*
X296650Y469645D01*
X296650Y470310D02*
X298750Y470310D01*
X298750Y470975D02*
X296650Y470975D01*
X296650Y471640D02*
X298750Y471640D01*
X298750Y472305D02*
X296650Y472305D01*
X296650Y472970D02*
X298750Y472970D01*
X298750Y473635D02*
X296650Y473635D01*
X296650Y474300D02*
X298750Y474300D01*
X298750Y474965D02*
X296650Y474965D01*
X296650Y475630D02*
X298750Y475630D01*
X298750Y476295D02*
X296650Y476295D01*
X296650Y476960D02*
X298750Y476960D01*
X298750Y477625D02*
X296650Y477625D01*
X296650Y478290D02*
X298750Y478290D01*
X298750Y478955D02*
X296650Y478955D01*
X296650Y479620D02*
X298750Y479620D01*
X298750Y480285D02*
X296650Y480285D01*
X296650Y480950D02*
X298750Y480950D01*
X298750Y481615D02*
X296650Y481615D01*
X296650Y482280D02*
X298750Y482280D01*
X293750Y482550D02*
X293750Y467650D01*
X291650Y467650D01*
X291650Y482550D01*
X293750Y482550D01*
X293750Y468315D02*
X291650Y468315D01*
X291650Y468980D02*
X293750Y468980D01*
X293750Y469645D02*
X291650Y469645D01*
X291650Y470310D02*
X293750Y470310D01*
X293750Y470975D02*
X291650Y470975D01*
X291650Y471640D02*
X293750Y471640D01*
X293750Y472305D02*
X291650Y472305D01*
X291650Y472970D02*
X293750Y472970D01*
X293750Y473635D02*
X291650Y473635D01*
X291650Y474300D02*
X293750Y474300D01*
X293750Y474965D02*
X291650Y474965D01*
X291650Y475630D02*
X293750Y475630D01*
X293750Y476295D02*
X291650Y476295D01*
X291650Y476960D02*
X293750Y476960D01*
X293750Y477625D02*
X291650Y477625D01*
X291650Y478290D02*
X293750Y478290D01*
X293750Y478955D02*
X291650Y478955D01*
X291650Y479620D02*
X293750Y479620D01*
X293750Y480285D02*
X291650Y480285D01*
X291650Y480950D02*
X293750Y480950D01*
X293750Y481615D02*
X291650Y481615D01*
X291650Y482280D02*
X293750Y482280D01*
X288750Y482550D02*
X288750Y467650D01*
X286650Y467650D01*
X286650Y482550D01*
X288750Y482550D01*
X288750Y468315D02*
X286650Y468315D01*
X286650Y468980D02*
X288750Y468980D01*
X288750Y469645D02*
X286650Y469645D01*
X286650Y470310D02*
X288750Y470310D01*
X288750Y470975D02*
X286650Y470975D01*
X286650Y471640D02*
X288750Y471640D01*
X288750Y472305D02*
X286650Y472305D01*
X286650Y472970D02*
X288750Y472970D01*
X288750Y473635D02*
X286650Y473635D01*
X286650Y474300D02*
X288750Y474300D01*
X288750Y474965D02*
X286650Y474965D01*
X286650Y475630D02*
X288750Y475630D01*
X288750Y476295D02*
X286650Y476295D01*
X286650Y476960D02*
X288750Y476960D01*
X288750Y477625D02*
X286650Y477625D01*
X286650Y478290D02*
X288750Y478290D01*
X288750Y478955D02*
X286650Y478955D01*
X286650Y479620D02*
X288750Y479620D01*
X288750Y480285D02*
X286650Y480285D01*
X286650Y480950D02*
X288750Y480950D01*
X288750Y481615D02*
X286650Y481615D01*
X286650Y482280D02*
X288750Y482280D01*
X283750Y482550D02*
X283750Y467650D01*
X281650Y467650D01*
X281650Y482550D01*
X283750Y482550D01*
X283750Y468315D02*
X281650Y468315D01*
X281650Y468980D02*
X283750Y468980D01*
X283750Y469645D02*
X281650Y469645D01*
X281650Y470310D02*
X283750Y470310D01*
X283750Y470975D02*
X281650Y470975D01*
X281650Y471640D02*
X283750Y471640D01*
X283750Y472305D02*
X281650Y472305D01*
X281650Y472970D02*
X283750Y472970D01*
X283750Y473635D02*
X281650Y473635D01*
X281650Y474300D02*
X283750Y474300D01*
X283750Y474965D02*
X281650Y474965D01*
X281650Y475630D02*
X283750Y475630D01*
X283750Y476295D02*
X281650Y476295D01*
X281650Y476960D02*
X283750Y476960D01*
X283750Y477625D02*
X281650Y477625D01*
X281650Y478290D02*
X283750Y478290D01*
X283750Y478955D02*
X281650Y478955D01*
X281650Y479620D02*
X283750Y479620D01*
X283750Y480285D02*
X281650Y480285D01*
X281650Y480950D02*
X283750Y480950D01*
X283750Y481615D02*
X281650Y481615D01*
X281650Y482280D02*
X283750Y482280D01*
X278750Y482550D02*
X278750Y467650D01*
X276650Y467650D01*
X276650Y482550D01*
X278750Y482550D01*
X278750Y468315D02*
X276650Y468315D01*
X276650Y468980D02*
X278750Y468980D01*
X278750Y469645D02*
X276650Y469645D01*
X276650Y470310D02*
X278750Y470310D01*
X278750Y470975D02*
X276650Y470975D01*
X276650Y471640D02*
X278750Y471640D01*
X278750Y472305D02*
X276650Y472305D01*
X276650Y472970D02*
X278750Y472970D01*
X278750Y473635D02*
X276650Y473635D01*
X276650Y474300D02*
X278750Y474300D01*
X278750Y474965D02*
X276650Y474965D01*
X276650Y475630D02*
X278750Y475630D01*
X278750Y476295D02*
X276650Y476295D01*
X276650Y476960D02*
X278750Y476960D01*
X278750Y477625D02*
X276650Y477625D01*
X276650Y478290D02*
X278750Y478290D01*
X278750Y478955D02*
X276650Y478955D01*
X276650Y479620D02*
X278750Y479620D01*
X278750Y480285D02*
X276650Y480285D01*
X276650Y480950D02*
X278750Y480950D01*
X278750Y481615D02*
X276650Y481615D01*
X276650Y482280D02*
X278750Y482280D01*
X273750Y482550D02*
X273750Y467650D01*
X271650Y467650D01*
X271650Y482550D01*
X273750Y482550D01*
X273750Y468315D02*
X271650Y468315D01*
X271650Y468980D02*
X273750Y468980D01*
X273750Y469645D02*
X271650Y469645D01*
X271650Y470310D02*
X273750Y470310D01*
X273750Y470975D02*
X271650Y470975D01*
X271650Y471640D02*
X273750Y471640D01*
X273750Y472305D02*
X271650Y472305D01*
X271650Y472970D02*
X273750Y472970D01*
X273750Y473635D02*
X271650Y473635D01*
X271650Y474300D02*
X273750Y474300D01*
X273750Y474965D02*
X271650Y474965D01*
X271650Y475630D02*
X273750Y475630D01*
X273750Y476295D02*
X271650Y476295D01*
X271650Y476960D02*
X273750Y476960D01*
X273750Y477625D02*
X271650Y477625D01*
X271650Y478290D02*
X273750Y478290D01*
X273750Y478955D02*
X271650Y478955D01*
X271650Y479620D02*
X273750Y479620D01*
X273750Y480285D02*
X271650Y480285D01*
X271650Y480950D02*
X273750Y480950D01*
X273750Y481615D02*
X271650Y481615D01*
X271650Y482280D02*
X273750Y482280D01*
X268750Y482550D02*
X268750Y467650D01*
X266650Y467650D01*
X266650Y482550D01*
X268750Y482550D01*
X268750Y468315D02*
X266650Y468315D01*
X266650Y468980D02*
X268750Y468980D01*
X268750Y469645D02*
X266650Y469645D01*
X266650Y470310D02*
X268750Y470310D01*
X268750Y470975D02*
X266650Y470975D01*
X266650Y471640D02*
X268750Y471640D01*
X268750Y472305D02*
X266650Y472305D01*
X266650Y472970D02*
X268750Y472970D01*
X268750Y473635D02*
X266650Y473635D01*
X266650Y474300D02*
X268750Y474300D01*
X268750Y474965D02*
X266650Y474965D01*
X266650Y475630D02*
X268750Y475630D01*
X268750Y476295D02*
X266650Y476295D01*
X266650Y476960D02*
X268750Y476960D01*
X268750Y477625D02*
X266650Y477625D01*
X266650Y478290D02*
X268750Y478290D01*
X268750Y478955D02*
X266650Y478955D01*
X266650Y479620D02*
X268750Y479620D01*
X268750Y480285D02*
X266650Y480285D01*
X266650Y480950D02*
X268750Y480950D01*
X268750Y481615D02*
X266650Y481615D01*
X266650Y482280D02*
X268750Y482280D01*
X263750Y482550D02*
X263750Y467650D01*
X261650Y467650D01*
X261650Y482550D01*
X263750Y482550D01*
X263750Y468315D02*
X261650Y468315D01*
X261650Y468980D02*
X263750Y468980D01*
X263750Y469645D02*
X261650Y469645D01*
X261650Y470310D02*
X263750Y470310D01*
X263750Y470975D02*
X261650Y470975D01*
X261650Y471640D02*
X263750Y471640D01*
X263750Y472305D02*
X261650Y472305D01*
X261650Y472970D02*
X263750Y472970D01*
X263750Y473635D02*
X261650Y473635D01*
X261650Y474300D02*
X263750Y474300D01*
X263750Y474965D02*
X261650Y474965D01*
X261650Y475630D02*
X263750Y475630D01*
X263750Y476295D02*
X261650Y476295D01*
X261650Y476960D02*
X263750Y476960D01*
X263750Y477625D02*
X261650Y477625D01*
X261650Y478290D02*
X263750Y478290D01*
X263750Y478955D02*
X261650Y478955D01*
X261650Y479620D02*
X263750Y479620D01*
X263750Y480285D02*
X261650Y480285D01*
X261650Y480950D02*
X263750Y480950D01*
X263750Y481615D02*
X261650Y481615D01*
X261650Y482280D02*
X263750Y482280D01*
X258750Y482550D02*
X258750Y467650D01*
X256650Y467650D01*
X256650Y482550D01*
X258750Y482550D01*
X258750Y468315D02*
X256650Y468315D01*
X256650Y468980D02*
X258750Y468980D01*
X258750Y469645D02*
X256650Y469645D01*
X256650Y470310D02*
X258750Y470310D01*
X258750Y470975D02*
X256650Y470975D01*
X256650Y471640D02*
X258750Y471640D01*
X258750Y472305D02*
X256650Y472305D01*
X256650Y472970D02*
X258750Y472970D01*
X258750Y473635D02*
X256650Y473635D01*
X256650Y474300D02*
X258750Y474300D01*
X258750Y474965D02*
X256650Y474965D01*
X256650Y475630D02*
X258750Y475630D01*
X258750Y476295D02*
X256650Y476295D01*
X256650Y476960D02*
X258750Y476960D01*
X258750Y477625D02*
X256650Y477625D01*
X256650Y478290D02*
X258750Y478290D01*
X258750Y478955D02*
X256650Y478955D01*
X256650Y479620D02*
X258750Y479620D01*
X258750Y480285D02*
X256650Y480285D01*
X256650Y480950D02*
X258750Y480950D01*
X258750Y481615D02*
X256650Y481615D01*
X256650Y482280D02*
X258750Y482280D01*
X253750Y482550D02*
X253750Y467650D01*
X251650Y467650D01*
X251650Y482550D01*
X253750Y482550D01*
X253750Y468315D02*
X251650Y468315D01*
X251650Y468980D02*
X253750Y468980D01*
X253750Y469645D02*
X251650Y469645D01*
X251650Y470310D02*
X253750Y470310D01*
X253750Y470975D02*
X251650Y470975D01*
X251650Y471640D02*
X253750Y471640D01*
X253750Y472305D02*
X251650Y472305D01*
X251650Y472970D02*
X253750Y472970D01*
X253750Y473635D02*
X251650Y473635D01*
X251650Y474300D02*
X253750Y474300D01*
X253750Y474965D02*
X251650Y474965D01*
X251650Y475630D02*
X253750Y475630D01*
X253750Y476295D02*
X251650Y476295D01*
X251650Y476960D02*
X253750Y476960D01*
X253750Y477625D02*
X251650Y477625D01*
X251650Y478290D02*
X253750Y478290D01*
X253750Y478955D02*
X251650Y478955D01*
X251650Y479620D02*
X253750Y479620D01*
X253750Y480285D02*
X251650Y480285D01*
X251650Y480950D02*
X253750Y480950D01*
X253750Y481615D02*
X251650Y481615D01*
X251650Y482280D02*
X253750Y482280D01*
X248750Y482550D02*
X248750Y467650D01*
X246650Y467650D01*
X246650Y482550D01*
X248750Y482550D01*
X248750Y468315D02*
X246650Y468315D01*
X246650Y468980D02*
X248750Y468980D01*
X248750Y469645D02*
X246650Y469645D01*
X246650Y470310D02*
X248750Y470310D01*
X248750Y470975D02*
X246650Y470975D01*
X246650Y471640D02*
X248750Y471640D01*
X248750Y472305D02*
X246650Y472305D01*
X246650Y472970D02*
X248750Y472970D01*
X248750Y473635D02*
X246650Y473635D01*
X246650Y474300D02*
X248750Y474300D01*
X248750Y474965D02*
X246650Y474965D01*
X246650Y475630D02*
X248750Y475630D01*
X248750Y476295D02*
X246650Y476295D01*
X246650Y476960D02*
X248750Y476960D01*
X248750Y477625D02*
X246650Y477625D01*
X246650Y478290D02*
X248750Y478290D01*
X248750Y478955D02*
X246650Y478955D01*
X246650Y479620D02*
X248750Y479620D01*
X248750Y480285D02*
X246650Y480285D01*
X246650Y480950D02*
X248750Y480950D01*
X248750Y481615D02*
X246650Y481615D01*
X246650Y482280D02*
X248750Y482280D01*
X243750Y482550D02*
X243750Y467650D01*
X241650Y467650D01*
X241650Y482550D01*
X243750Y482550D01*
X243750Y468315D02*
X241650Y468315D01*
X241650Y468980D02*
X243750Y468980D01*
X243750Y469645D02*
X241650Y469645D01*
X241650Y470310D02*
X243750Y470310D01*
X243750Y470975D02*
X241650Y470975D01*
X241650Y471640D02*
X243750Y471640D01*
X243750Y472305D02*
X241650Y472305D01*
X241650Y472970D02*
X243750Y472970D01*
X243750Y473635D02*
X241650Y473635D01*
X241650Y474300D02*
X243750Y474300D01*
X243750Y474965D02*
X241650Y474965D01*
X241650Y475630D02*
X243750Y475630D01*
X243750Y476295D02*
X241650Y476295D01*
X241650Y476960D02*
X243750Y476960D01*
X243750Y477625D02*
X241650Y477625D01*
X241650Y478290D02*
X243750Y478290D01*
X243750Y478955D02*
X241650Y478955D01*
X241650Y479620D02*
X243750Y479620D01*
X243750Y480285D02*
X241650Y480285D01*
X241650Y480950D02*
X243750Y480950D01*
X243750Y481615D02*
X241650Y481615D01*
X241650Y482280D02*
X243750Y482280D01*
X230850Y454750D02*
X215950Y454750D01*
X215950Y456850D01*
X230850Y456850D01*
X230850Y454750D01*
X230850Y455415D02*
X215950Y455415D01*
X215950Y456080D02*
X230850Y456080D01*
X230850Y456745D02*
X215950Y456745D01*
X215950Y449750D02*
X230850Y449750D01*
X215950Y449750D02*
X215950Y451850D01*
X230850Y451850D01*
X230850Y449750D01*
X230850Y450415D02*
X215950Y450415D01*
X215950Y451080D02*
X230850Y451080D01*
X230850Y451745D02*
X215950Y451745D01*
X215950Y444750D02*
X230850Y444750D01*
X215950Y444750D02*
X215950Y446850D01*
X230850Y446850D01*
X230850Y444750D01*
X230850Y445415D02*
X215950Y445415D01*
X215950Y446080D02*
X230850Y446080D01*
X230850Y446745D02*
X215950Y446745D01*
X215950Y439750D02*
X230850Y439750D01*
X215950Y439750D02*
X215950Y441850D01*
X230850Y441850D01*
X230850Y439750D01*
X230850Y440415D02*
X215950Y440415D01*
X215950Y441080D02*
X230850Y441080D01*
X230850Y441745D02*
X215950Y441745D01*
X215950Y434750D02*
X230850Y434750D01*
X215950Y434750D02*
X215950Y436850D01*
X230850Y436850D01*
X230850Y434750D01*
X230850Y435415D02*
X215950Y435415D01*
X215950Y436080D02*
X230850Y436080D01*
X230850Y436745D02*
X215950Y436745D01*
X215950Y429750D02*
X230850Y429750D01*
X215950Y429750D02*
X215950Y431850D01*
X230850Y431850D01*
X230850Y429750D01*
X230850Y430415D02*
X215950Y430415D01*
X215950Y431080D02*
X230850Y431080D01*
X230850Y431745D02*
X215950Y431745D01*
X215950Y424750D02*
X230850Y424750D01*
X215950Y424750D02*
X215950Y426850D01*
X230850Y426850D01*
X230850Y424750D01*
X230850Y425415D02*
X215950Y425415D01*
X215950Y426080D02*
X230850Y426080D01*
X230850Y426745D02*
X215950Y426745D01*
X215950Y419750D02*
X230850Y419750D01*
X215950Y419750D02*
X215950Y421850D01*
X230850Y421850D01*
X230850Y419750D01*
X230850Y420415D02*
X215950Y420415D01*
X215950Y421080D02*
X230850Y421080D01*
X230850Y421745D02*
X215950Y421745D01*
X215950Y414750D02*
X230850Y414750D01*
X215950Y414750D02*
X215950Y416850D01*
X230850Y416850D01*
X230850Y414750D01*
X230850Y415415D02*
X215950Y415415D01*
X215950Y416080D02*
X230850Y416080D01*
X230850Y416745D02*
X215950Y416745D01*
X215950Y409750D02*
X230850Y409750D01*
X215950Y409750D02*
X215950Y411850D01*
X230850Y411850D01*
X230850Y409750D01*
X230850Y410415D02*
X215950Y410415D01*
X215950Y411080D02*
X230850Y411080D01*
X230850Y411745D02*
X215950Y411745D01*
X215950Y404750D02*
X230850Y404750D01*
X215950Y404750D02*
X215950Y406850D01*
X230850Y406850D01*
X230850Y404750D01*
X230850Y405415D02*
X215950Y405415D01*
X215950Y406080D02*
X230850Y406080D01*
X230850Y406745D02*
X215950Y406745D01*
X215950Y399750D02*
X230850Y399750D01*
X215950Y399750D02*
X215950Y401850D01*
X230850Y401850D01*
X230850Y399750D01*
X230850Y400415D02*
X215950Y400415D01*
X215950Y401080D02*
X230850Y401080D01*
X230850Y401745D02*
X215950Y401745D01*
X215950Y394750D02*
X230850Y394750D01*
X215950Y394750D02*
X215950Y396850D01*
X230850Y396850D01*
X230850Y394750D01*
X230850Y395415D02*
X215950Y395415D01*
X215950Y396080D02*
X230850Y396080D01*
X230850Y396745D02*
X215950Y396745D01*
X215950Y389750D02*
X230850Y389750D01*
X215950Y389750D02*
X215950Y391850D01*
X230850Y391850D01*
X230850Y389750D01*
X230850Y390415D02*
X215950Y390415D01*
X215950Y391080D02*
X230850Y391080D01*
X230850Y391745D02*
X215950Y391745D01*
X215950Y384750D02*
X230850Y384750D01*
X215950Y384750D02*
X215950Y386850D01*
X230850Y386850D01*
X230850Y384750D01*
X230850Y385415D02*
X215950Y385415D01*
X215950Y386080D02*
X230850Y386080D01*
X230850Y386745D02*
X215950Y386745D01*
X215950Y379750D02*
X230850Y379750D01*
X215950Y379750D02*
X215950Y381850D01*
X230850Y381850D01*
X230850Y379750D01*
X230850Y380415D02*
X215950Y380415D01*
X215950Y381080D02*
X230850Y381080D01*
X230850Y381745D02*
X215950Y381745D01*
X215950Y374750D02*
X230850Y374750D01*
X215950Y374750D02*
X215950Y376850D01*
X230850Y376850D01*
X230850Y374750D01*
X230850Y375415D02*
X215950Y375415D01*
X215950Y376080D02*
X230850Y376080D01*
X230850Y376745D02*
X215950Y376745D01*
X215950Y369750D02*
X230850Y369750D01*
X215950Y369750D02*
X215950Y371850D01*
X230850Y371850D01*
X230850Y369750D01*
X230850Y370415D02*
X215950Y370415D01*
X215950Y371080D02*
X230850Y371080D01*
X230850Y371745D02*
X215950Y371745D01*
X215950Y364750D02*
X230850Y364750D01*
X215950Y364750D02*
X215950Y366850D01*
X230850Y366850D01*
X230850Y364750D01*
X230850Y365415D02*
X215950Y365415D01*
X215950Y366080D02*
X230850Y366080D01*
X230850Y366745D02*
X215950Y366745D01*
X215950Y359750D02*
X230850Y359750D01*
X215950Y359750D02*
X215950Y361850D01*
X230850Y361850D01*
X230850Y359750D01*
X230850Y360415D02*
X215950Y360415D01*
X215950Y361080D02*
X230850Y361080D01*
X230850Y361745D02*
X215950Y361745D01*
X215950Y354750D02*
X230850Y354750D01*
X215950Y354750D02*
X215950Y356850D01*
X230850Y356850D01*
X230850Y354750D01*
X230850Y355415D02*
X215950Y355415D01*
X215950Y356080D02*
X230850Y356080D01*
X230850Y356745D02*
X215950Y356745D01*
X215950Y349750D02*
X230850Y349750D01*
X215950Y349750D02*
X215950Y351850D01*
X230850Y351850D01*
X230850Y349750D01*
X230850Y350415D02*
X215950Y350415D01*
X215950Y351080D02*
X230850Y351080D01*
X230850Y351745D02*
X215950Y351745D01*
X215950Y344750D02*
X230850Y344750D01*
X215950Y344750D02*
X215950Y346850D01*
X230850Y346850D01*
X230850Y344750D01*
X230850Y345415D02*
X215950Y345415D01*
X215950Y346080D02*
X230850Y346080D01*
X230850Y346745D02*
X215950Y346745D01*
X215950Y339750D02*
X230850Y339750D01*
X215950Y339750D02*
X215950Y341850D01*
X230850Y341850D01*
X230850Y339750D01*
X230850Y340415D02*
X215950Y340415D01*
X215950Y341080D02*
X230850Y341080D01*
X230850Y341745D02*
X215950Y341745D01*
X215950Y334750D02*
X230850Y334750D01*
X215950Y334750D02*
X215950Y336850D01*
X230850Y336850D01*
X230850Y334750D01*
X230850Y335415D02*
X215950Y335415D01*
X215950Y336080D02*
X230850Y336080D01*
X230850Y336745D02*
X215950Y336745D01*
X215950Y329750D02*
X230850Y329750D01*
X215950Y329750D02*
X215950Y331850D01*
X230850Y331850D01*
X230850Y329750D01*
X230850Y330415D02*
X215950Y330415D01*
X215950Y331080D02*
X230850Y331080D01*
X230850Y331745D02*
X215950Y331745D01*
X215950Y324750D02*
X230850Y324750D01*
X215950Y324750D02*
X215950Y326850D01*
X230850Y326850D01*
X230850Y324750D01*
X230850Y325415D02*
X215950Y325415D01*
X215950Y326080D02*
X230850Y326080D01*
X230850Y326745D02*
X215950Y326745D01*
X215950Y319750D02*
X230850Y319750D01*
X215950Y319750D02*
X215950Y321850D01*
X230850Y321850D01*
X230850Y319750D01*
X230850Y320415D02*
X215950Y320415D01*
X215950Y321080D02*
X230850Y321080D01*
X230850Y321745D02*
X215950Y321745D01*
X215950Y314750D02*
X230850Y314750D01*
X215950Y314750D02*
X215950Y316850D01*
X230850Y316850D01*
X230850Y314750D01*
X230850Y315415D02*
X215950Y315415D01*
X215950Y316080D02*
X230850Y316080D01*
X230850Y316745D02*
X215950Y316745D01*
X215950Y309750D02*
X230850Y309750D01*
X215950Y309750D02*
X215950Y311850D01*
X230850Y311850D01*
X230850Y309750D01*
X230850Y310415D02*
X215950Y310415D01*
X215950Y311080D02*
X230850Y311080D01*
X230850Y311745D02*
X215950Y311745D01*
X215950Y304750D02*
X230850Y304750D01*
X215950Y304750D02*
X215950Y306850D01*
X230850Y306850D01*
X230850Y304750D01*
X230850Y305415D02*
X215950Y305415D01*
X215950Y306080D02*
X230850Y306080D01*
X230850Y306745D02*
X215950Y306745D01*
X215950Y299750D02*
X230850Y299750D01*
X215950Y299750D02*
X215950Y301850D01*
X230850Y301850D01*
X230850Y299750D01*
X230850Y300415D02*
X215950Y300415D01*
X215950Y301080D02*
X230850Y301080D01*
X230850Y301745D02*
X215950Y301745D01*
X215950Y294750D02*
X230850Y294750D01*
X215950Y294750D02*
X215950Y296850D01*
X230850Y296850D01*
X230850Y294750D01*
X230850Y295415D02*
X215950Y295415D01*
X215950Y296080D02*
X230850Y296080D01*
X230850Y296745D02*
X215950Y296745D01*
X215950Y289750D02*
X230850Y289750D01*
X215950Y289750D02*
X215950Y291850D01*
X230850Y291850D01*
X230850Y289750D01*
X230850Y290415D02*
X215950Y290415D01*
X215950Y291080D02*
X230850Y291080D01*
X230850Y291745D02*
X215950Y291745D01*
X215950Y284750D02*
X230850Y284750D01*
X215950Y284750D02*
X215950Y286850D01*
X230850Y286850D01*
X230850Y284750D01*
X230850Y285415D02*
X215950Y285415D01*
X215950Y286080D02*
X230850Y286080D01*
X230850Y286745D02*
X215950Y286745D01*
X215950Y279750D02*
X230850Y279750D01*
X215950Y279750D02*
X215950Y281850D01*
X230850Y281850D01*
X230850Y279750D01*
X230850Y280415D02*
X215950Y280415D01*
X215950Y281080D02*
X230850Y281080D01*
X230850Y281745D02*
X215950Y281745D01*
X429550Y279750D02*
X444450Y279750D01*
X429550Y279750D02*
X429550Y281850D01*
X444450Y281850D01*
X444450Y279750D01*
X444450Y280415D02*
X429550Y280415D01*
X429550Y281080D02*
X444450Y281080D01*
X444450Y281745D02*
X429550Y281745D01*
X429550Y284750D02*
X444450Y284750D01*
X429550Y284750D02*
X429550Y286850D01*
X444450Y286850D01*
X444450Y284750D01*
X444450Y285415D02*
X429550Y285415D01*
X429550Y286080D02*
X444450Y286080D01*
X444450Y286745D02*
X429550Y286745D01*
X429550Y289750D02*
X444450Y289750D01*
X429550Y289750D02*
X429550Y291850D01*
X444450Y291850D01*
X444450Y289750D01*
X444450Y290415D02*
X429550Y290415D01*
X429550Y291080D02*
X444450Y291080D01*
X444450Y291745D02*
X429550Y291745D01*
X429550Y294750D02*
X444450Y294750D01*
X429550Y294750D02*
X429550Y296850D01*
X444450Y296850D01*
X444450Y294750D01*
X444450Y295415D02*
X429550Y295415D01*
X429550Y296080D02*
X444450Y296080D01*
X444450Y296745D02*
X429550Y296745D01*
X429550Y299750D02*
X444450Y299750D01*
X429550Y299750D02*
X429550Y301850D01*
X444450Y301850D01*
X444450Y299750D01*
X444450Y300415D02*
X429550Y300415D01*
X429550Y301080D02*
X444450Y301080D01*
X444450Y301745D02*
X429550Y301745D01*
X429550Y304750D02*
X444450Y304750D01*
X429550Y304750D02*
X429550Y306850D01*
X444450Y306850D01*
X444450Y304750D01*
X444450Y305415D02*
X429550Y305415D01*
X429550Y306080D02*
X444450Y306080D01*
X444450Y306745D02*
X429550Y306745D01*
X429550Y309750D02*
X444450Y309750D01*
X429550Y309750D02*
X429550Y311850D01*
X444450Y311850D01*
X444450Y309750D01*
X444450Y310415D02*
X429550Y310415D01*
X429550Y311080D02*
X444450Y311080D01*
X444450Y311745D02*
X429550Y311745D01*
X429550Y314750D02*
X444450Y314750D01*
X429550Y314750D02*
X429550Y316850D01*
X444450Y316850D01*
X444450Y314750D01*
X444450Y315415D02*
X429550Y315415D01*
X429550Y316080D02*
X444450Y316080D01*
X444450Y316745D02*
X429550Y316745D01*
X429550Y319750D02*
X444450Y319750D01*
X429550Y319750D02*
X429550Y321850D01*
X444450Y321850D01*
X444450Y319750D01*
X444450Y320415D02*
X429550Y320415D01*
X429550Y321080D02*
X444450Y321080D01*
X444450Y321745D02*
X429550Y321745D01*
X429550Y324750D02*
X444450Y324750D01*
X429550Y324750D02*
X429550Y326850D01*
X444450Y326850D01*
X444450Y324750D01*
X444450Y325415D02*
X429550Y325415D01*
X429550Y326080D02*
X444450Y326080D01*
X444450Y326745D02*
X429550Y326745D01*
X429550Y329750D02*
X444450Y329750D01*
X429550Y329750D02*
X429550Y331850D01*
X444450Y331850D01*
X444450Y329750D01*
X444450Y330415D02*
X429550Y330415D01*
X429550Y331080D02*
X444450Y331080D01*
X444450Y331745D02*
X429550Y331745D01*
X429550Y334750D02*
X444450Y334750D01*
X429550Y334750D02*
X429550Y336850D01*
X444450Y336850D01*
X444450Y334750D01*
X444450Y335415D02*
X429550Y335415D01*
X429550Y336080D02*
X444450Y336080D01*
X444450Y336745D02*
X429550Y336745D01*
X429550Y339750D02*
X444450Y339750D01*
X429550Y339750D02*
X429550Y341850D01*
X444450Y341850D01*
X444450Y339750D01*
X444450Y340415D02*
X429550Y340415D01*
X429550Y341080D02*
X444450Y341080D01*
X444450Y341745D02*
X429550Y341745D01*
X429550Y344750D02*
X444450Y344750D01*
X429550Y344750D02*
X429550Y346850D01*
X444450Y346850D01*
X444450Y344750D01*
X444450Y345415D02*
X429550Y345415D01*
X429550Y346080D02*
X444450Y346080D01*
X444450Y346745D02*
X429550Y346745D01*
X429550Y349750D02*
X444450Y349750D01*
X429550Y349750D02*
X429550Y351850D01*
X444450Y351850D01*
X444450Y349750D01*
X444450Y350415D02*
X429550Y350415D01*
X429550Y351080D02*
X444450Y351080D01*
X444450Y351745D02*
X429550Y351745D01*
X429550Y354750D02*
X444450Y354750D01*
X429550Y354750D02*
X429550Y356850D01*
X444450Y356850D01*
X444450Y354750D01*
X444450Y355415D02*
X429550Y355415D01*
X429550Y356080D02*
X444450Y356080D01*
X444450Y356745D02*
X429550Y356745D01*
X429550Y359750D02*
X444450Y359750D01*
X429550Y359750D02*
X429550Y361850D01*
X444450Y361850D01*
X444450Y359750D01*
X444450Y360415D02*
X429550Y360415D01*
X429550Y361080D02*
X444450Y361080D01*
X444450Y361745D02*
X429550Y361745D01*
X429550Y364750D02*
X444450Y364750D01*
X429550Y364750D02*
X429550Y366850D01*
X444450Y366850D01*
X444450Y364750D01*
X444450Y365415D02*
X429550Y365415D01*
X429550Y366080D02*
X444450Y366080D01*
X444450Y366745D02*
X429550Y366745D01*
X429550Y369750D02*
X444450Y369750D01*
X429550Y369750D02*
X429550Y371850D01*
X444450Y371850D01*
X444450Y369750D01*
X444450Y370415D02*
X429550Y370415D01*
X429550Y371080D02*
X444450Y371080D01*
X444450Y371745D02*
X429550Y371745D01*
X429550Y374750D02*
X444450Y374750D01*
X429550Y374750D02*
X429550Y376850D01*
X444450Y376850D01*
X444450Y374750D01*
X444450Y375415D02*
X429550Y375415D01*
X429550Y376080D02*
X444450Y376080D01*
X444450Y376745D02*
X429550Y376745D01*
X429550Y379750D02*
X444450Y379750D01*
X429550Y379750D02*
X429550Y381850D01*
X444450Y381850D01*
X444450Y379750D01*
X444450Y380415D02*
X429550Y380415D01*
X429550Y381080D02*
X444450Y381080D01*
X444450Y381745D02*
X429550Y381745D01*
X429550Y384750D02*
X444450Y384750D01*
X429550Y384750D02*
X429550Y386850D01*
X444450Y386850D01*
X444450Y384750D01*
X444450Y385415D02*
X429550Y385415D01*
X429550Y386080D02*
X444450Y386080D01*
X444450Y386745D02*
X429550Y386745D01*
X429550Y389750D02*
X444450Y389750D01*
X429550Y389750D02*
X429550Y391850D01*
X444450Y391850D01*
X444450Y389750D01*
X444450Y390415D02*
X429550Y390415D01*
X429550Y391080D02*
X444450Y391080D01*
X444450Y391745D02*
X429550Y391745D01*
X429550Y394750D02*
X444450Y394750D01*
X429550Y394750D02*
X429550Y396850D01*
X444450Y396850D01*
X444450Y394750D01*
X444450Y395415D02*
X429550Y395415D01*
X429550Y396080D02*
X444450Y396080D01*
X444450Y396745D02*
X429550Y396745D01*
X429550Y399750D02*
X444450Y399750D01*
X429550Y399750D02*
X429550Y401850D01*
X444450Y401850D01*
X444450Y399750D01*
X444450Y400415D02*
X429550Y400415D01*
X429550Y401080D02*
X444450Y401080D01*
X444450Y401745D02*
X429550Y401745D01*
X429550Y404750D02*
X444450Y404750D01*
X429550Y404750D02*
X429550Y406850D01*
X444450Y406850D01*
X444450Y404750D01*
X444450Y405415D02*
X429550Y405415D01*
X429550Y406080D02*
X444450Y406080D01*
X444450Y406745D02*
X429550Y406745D01*
X429550Y409750D02*
X444450Y409750D01*
X429550Y409750D02*
X429550Y411850D01*
X444450Y411850D01*
X444450Y409750D01*
X444450Y410415D02*
X429550Y410415D01*
X429550Y411080D02*
X444450Y411080D01*
X444450Y411745D02*
X429550Y411745D01*
X429550Y414750D02*
X444450Y414750D01*
X429550Y414750D02*
X429550Y416850D01*
X444450Y416850D01*
X444450Y414750D01*
X444450Y415415D02*
X429550Y415415D01*
X429550Y416080D02*
X444450Y416080D01*
X444450Y416745D02*
X429550Y416745D01*
X429550Y419750D02*
X444450Y419750D01*
X429550Y419750D02*
X429550Y421850D01*
X444450Y421850D01*
X444450Y419750D01*
X444450Y420415D02*
X429550Y420415D01*
X429550Y421080D02*
X444450Y421080D01*
X444450Y421745D02*
X429550Y421745D01*
X429550Y424750D02*
X444450Y424750D01*
X429550Y424750D02*
X429550Y426850D01*
X444450Y426850D01*
X444450Y424750D01*
X444450Y425415D02*
X429550Y425415D01*
X429550Y426080D02*
X444450Y426080D01*
X444450Y426745D02*
X429550Y426745D01*
X429550Y429750D02*
X444450Y429750D01*
X429550Y429750D02*
X429550Y431850D01*
X444450Y431850D01*
X444450Y429750D01*
X444450Y430415D02*
X429550Y430415D01*
X429550Y431080D02*
X444450Y431080D01*
X444450Y431745D02*
X429550Y431745D01*
X429550Y434750D02*
X444450Y434750D01*
X429550Y434750D02*
X429550Y436850D01*
X444450Y436850D01*
X444450Y434750D01*
X444450Y435415D02*
X429550Y435415D01*
X429550Y436080D02*
X444450Y436080D01*
X444450Y436745D02*
X429550Y436745D01*
X429550Y439750D02*
X444450Y439750D01*
X429550Y439750D02*
X429550Y441850D01*
X444450Y441850D01*
X444450Y439750D01*
X444450Y440415D02*
X429550Y440415D01*
X429550Y441080D02*
X444450Y441080D01*
X444450Y441745D02*
X429550Y441745D01*
X429550Y444750D02*
X444450Y444750D01*
X429550Y444750D02*
X429550Y446850D01*
X444450Y446850D01*
X444450Y444750D01*
X444450Y445415D02*
X429550Y445415D01*
X429550Y446080D02*
X444450Y446080D01*
X444450Y446745D02*
X429550Y446745D01*
X429550Y449750D02*
X444450Y449750D01*
X429550Y449750D02*
X429550Y451850D01*
X444450Y451850D01*
X444450Y449750D01*
X444450Y450415D02*
X429550Y450415D01*
X429550Y451080D02*
X444450Y451080D01*
X444450Y451745D02*
X429550Y451745D01*
X429550Y454750D02*
X444450Y454750D01*
X429550Y454750D02*
X429550Y456850D01*
X444450Y456850D01*
X444450Y454750D01*
X444450Y455415D02*
X429550Y455415D01*
X429550Y456080D02*
X444450Y456080D01*
X444450Y456745D02*
X429550Y456745D01*
D24*
X157475Y515500D03*
X157475Y510500D03*
X157475Y505500D03*
X157475Y500500D03*
D25*
X162600Y500375D03*
X167600Y500375D03*
D24*
X172725Y500500D03*
X172725Y505500D03*
X172725Y510500D03*
X172725Y515500D03*
D25*
X167600Y515625D03*
X162600Y515625D03*
D29*
X26600Y92100D03*
X49600Y92100D03*
X49600Y111100D03*
X26600Y111100D03*
D30*
X482600Y257700D03*
X482600Y275700D03*
D15*
X330200Y184700D03*
X330200Y196300D03*
X469900Y234400D03*
X469900Y222800D03*
D21*
X262350Y165100D03*
X271050Y165100D03*
X440150Y165100D03*
X448850Y165100D03*
D12*
X220100Y215900D03*
X237100Y215900D03*
X296300Y215900D03*
X313300Y215900D03*
X347100Y190500D03*
X364100Y190500D03*
X347100Y215900D03*
X364100Y215900D03*
X347100Y165100D03*
X364100Y165100D03*
X423300Y215900D03*
X440300Y215900D03*
X143900Y127000D03*
X160900Y127000D03*
X46600Y38100D03*
X29600Y38100D03*
X93100Y520700D03*
X110100Y520700D03*
X131200Y266700D03*
X148200Y266700D03*
D14*
X482600Y143900D03*
X482600Y160900D03*
D12*
X436000Y50800D03*
X453000Y50800D03*
X461400Y635000D03*
X478400Y635000D03*
M02*
